<svg width="3015" height="1511" viewBox="0 0 3015 1511" fill="none" xmlns="http://www.w3.org/2000/svg">
<g clip-path="url(#clip0_111_7)">
<path d="M1318.32 759.313C1331.5 751.89 1342.04 742.644 1349.72 731.746C1358.45 719.425 1363.07 704.698 1362.93 689.636C1362.93 660.584 1351.98 637.892 1330.41 622.219C1309.09 606.698 1279.77 598.853 1243.22 598.853H1111.06V935.446H1248.5C1286.99 935.446 1317.81 926.572 1340.1 909.043C1362.56 891.362 1373.97 866.612 1373.97 835.451C1373.97 816.472 1368.59 800.157 1358.04 786.947C1348.57 775.138 1335.22 765.859 1318.32 759.313ZM1182.58 659.521H1237.47C1254.69 659.521 1267.68 662.845 1276.13 669.357C1284.46 675.768 1288.54 684.237 1288.54 695.169C1288.54 706.136 1284.46 715.01 1276.13 721.471C1267.68 727.983 1254.69 731.29 1237.47 731.29H1182.58V659.521ZM1285.92 863.373C1276.4 870.948 1261.87 874.778 1242.74 874.778H1182.58V792.414H1242.76C1261.87 792.414 1276.42 796.125 1285.97 803.38C1295.44 810.634 1300.03 820.2 1300.03 832.668C1300.03 845.793 1295.42 855.832 1285.92 863.373ZM1470.61 683.748H1398.6V935.429H1470.59L1470.61 683.748ZM2181.74 721.623C2170.21 708.06 2155.68 697.321 2139.29 690.243C2122.53 682.87 2103.67 679.125 2083.29 679.125C2058.3 679.125 2035.76 684.76 2016.26 695.861C1996.98 706.752 1981.05 722.652 1970.19 741.851C1959.12 761.253 1953.53 783.725 1953.53 808.677C1953.53 833.646 1958.97 857.603 1969.68 877.291C1980.14 896.744 1996.09 912.749 2015.58 923.349C2035.25 934.13 2058.35 939.596 2084.26 939.596C2116.05 939.596 2143.03 931.667 2164.5 915.993C2185.15 900.928 2199.35 879.687 2207.1 853.065H2134.61C2130.8 862.124 2125.43 869.835 2117.73 875.267C2108.64 881.678 2096.89 884.917 2082.81 884.917C2070.61 884.917 2060.14 881.982 2051.7 876.178C2043.25 870.358 2036.79 861.787 2032.54 850.635C2029.83 843.308 2028.01 835.684 2027.12 827.927H2208.36L2208.72 825.7C2211.95 805.404 2211.13 786.171 2206.27 768.541C2201.62 751.316 2193.25 735.3 2181.74 721.606V721.623ZM2028.28 781.346C2029.38 776.132 2030.88 771.01 2032.78 766.027C2037.2 754.724 2043.58 746.052 2051.75 740.249C2059.9 734.428 2070.03 731.509 2081.86 731.509C2096.7 731.509 2108.89 736.284 2118.07 745.681C2126.79 754.623 2131.72 766.837 2132.78 781.329L2028.28 781.346ZM1472.11 598.853H1397.1V659.521H1472.11V598.853ZM1866.37 712.31C1858.25 702.476 1848.11 694.48 1836.62 688.86C1823.19 682.398 1807.46 679.125 1789.89 679.125C1768.38 679.125 1749.09 684.406 1732.6 694.764C1716.11 705.14 1703.02 719.784 1693.75 738.275C1684.49 756.732 1679.79 778.394 1679.79 802.688C1679.79 826.982 1684.72 847.379 1694.48 865.954C1704.26 884.597 1717.81 899.443 1734.76 910.106C1751.72 920.785 1771.08 926.217 1792.3 926.217C1808.31 926.217 1822.95 922.776 1835.77 915.977C1845.65 910.811 1854.29 903.588 1861.1 894.804V922.202C1861.1 939.191 1856.61 952.232 1847.77 960.921C1838.9 969.609 1825.4 973.996 1807.65 973.996C1792.35 973.996 1780.33 970.554 1771.92 963.755C1765.03 958.188 1759.01 950.9 1757.62 935.446H1688.19C1688.84 957.074 1695.23 971.634 1704.28 984.405C1714.39 998.695 1728.64 1009.88 1746.66 1017.61C1764.47 1025.23 1785.18 1029.11 1808.13 1029.11C1846.68 1029.11 1877.37 1019.5 1899.33 1000.55C1921.43 981.503 1932.62 954.83 1932.62 921.291V683.748H1866.39L1866.37 712.31ZM1853.7 836.126C1849.53 845.045 1842.88 852.596 1834.53 857.89C1826.37 862.951 1816.51 865.549 1805.25 865.549C1788.93 865.549 1776.27 860.032 1766.49 848.712C1756.74 837.425 1751.79 821.938 1751.79 802.671C1751.79 783.405 1756.72 767.917 1766.48 756.63C1776.15 745.462 1789.19 739.793 1805.24 739.793C1821.3 739.793 1835.48 745.529 1845.46 756.883C1855.52 768.339 1860.62 783.894 1860.62 803.11C1860.62 815.577 1858.29 826.662 1853.7 836.109V836.126ZM2383.03 743.96V683.765H2331.06V598.853H2259.55V683.765H2215.16V743.96H2259.55V842.487C2259.55 897.267 2270.43 937.521 2338.19 936.272L2380.74 935.429V879.029H2359.62C2329.5 879.029 2331.18 861.601 2331.18 829.226L2331.06 743.977L2383.03 743.96ZM1662.3 743.96V683.765H1610.33V598.853H1538.81V683.765H1494.41V743.96H1538.78V842.487C1538.78 897.267 1549.66 937.521 1617.44 936.272L1659.97 935.429V879.029H1638.91C1608.79 879.029 1610.45 861.601 1610.45 829.226L1610.33 743.977L1662.3 743.96ZM811.52 659.521H919.521L1030 768.457C1037.2 775.543 1037.23 787.082 1030.07 794.202L888.377 935.53H777.146L810.789 903.07L934.277 781.296L812.353 659.504" fill="#00F0FF"/>
<path d="M855.89 781.009H747.923L637.424 672.073C635.714 670.388 634.355 668.385 633.426 666.179C632.497 663.973 632.016 661.606 632.009 659.215C632.003 656.823 632.472 654.454 633.389 652.243C634.307 650.032 635.654 648.022 637.356 646.328L779.05 505H890.298L856.672 537.46L733.15 659.234L855.091 781.009" fill="#00F0FF"/>
</g>
<defs>
<clipPath id="clip0_111_7">
<rect width="1751" height="523" fill="white" transform="translate(632 505)"/>
</clipPath>
</defs>
</svg>
