<svg width="16" height="16" viewBox="0 0 16 16" xmlns="http://www.w3.org/2000/svg">
    <g fill="none" fill-rule="evenodd">
        <path d="M0 0h16v16H0z"/>
        <path d="M13.552 3c.8 0 1.448.616 1.448 1.375v8.25c0 .76-.648 1.375-1.448 1.375H2.448c-.384 0-.752-.145-1.024-.403A1.34 1.34 0 0 1 1 12.625v-8.25C1 3.615 1.648 3 2.448 3h11.104zm-1.488 2.98c-.179 0-.34.073-.45.191L7.755 9.282l-3.51-3.09a.624.624 0 0 0-.671-.18.576.576 0 0 0-.403.54c0 .145.057.277.15.379l.007.006a.59.59 0 0 0 .08.07l4.25 3.714 4.84-3.765-.003-.004a.552.552 0 0 0 .124-.623.605.605 0 0 0-.556-.35z" fill="#52F6C6" fill-rule="nonzero"/>
    </g>
</svg>
