<svg width="16" height="16" viewBox="0 0 16 16" xmlns="http://www.w3.org/2000/svg">
    <g fill="none" fill-rule="evenodd">
        <path d="M0 0h16v16H0z"/>
        <path d="M14.152 5.68c.318-.721.626-1.772.626-2.575 0-2.13-2.333-2.883-6.142-1.13-3.152-.212-6.187 2.158-6.945 5.462.905-1.021 2.293-2.41 3.574-2.963C3.674 5.888 2.318 7.68 1.29 9.547.682 10.658 0 12.453 0 13.795c0 2.888 2.72 2.535 5.281 1.23.92.451 1.95.457 2.978.457 2.846 0 5.398-1.59 6.352-4.277h-3.54c-1.538 2.596-5.765 1.553-5.765-1.39h9.633c.187-1.278-.05-2.805-.787-4.136zM1.749 10.374c.52 1.63 1.575 3.055 2.938 3.93-2.6 1.56-5.077.926-2.938-3.93zm3.876-2.813c.054-1.634 1.36-2.812 2.813-2.812 1.444 0 2.758 1.178 2.812 2.813H5.625zm4.688-4.946c.632-.317 1.435-.679 2.145-.679.928 0 1.604.67 1.604 1.658 0 .616-.218 1.51-.431 2.092-.775-1.305-1.95-2.516-3.319-3.071z" fill="#52F6C6" fill-rule="nonzero"/>
    </g>
</svg>
