<svg width="20" height="20" viewBox="0 0 20 20" xmlns="http://www.w3.org/2000/svg">
    <defs>
        <linearGradient x1="50%" y1="0%" x2="50%" y2="100%" id="b7kgg1jtca">
            <stop stop-color="#1EF5B6" stop-opacity=".898" offset="0%"/>
            <stop stop-color="#07CB92" offset="100%"/>
        </linearGradient>
    </defs>
    <g fill="none" fill-rule="evenodd">
        <path d="M10 20a9.969 9.969 0 0 0 7.071-2.929A9.969 9.969 0 0 0 20 10a9.969 9.969 0 0 0-2.929-7.071A9.969 9.969 0 0 0 10 0a9.969 9.969 0 0 0-7.071 2.929A9.969 9.969 0 0 0 0 10a9.969 9.969 0 0 0 2.929 7.071A9.969 9.969 0 0 0 10 20z" fill="url(#b7kgg1jtca)" fill-rule="nonzero"/>
        <path stroke="#FFF" stroke-width="2" stroke-linecap="round" stroke-linejoin="round" d="m6 10 3 3 6-6"/>
    </g>
</svg>
