<svg xmlns="http://www.w3.org/2000/svg" width="547" height="128" viewBox="0 0 547 128">
  <g fill="none" fill-rule="evenodd">
    <g fill-rule="nonzero">
      <path fill="#253137" d="M79.2698565,93.1376147 L56.4797727,103.045872 L56.4797727,102.055046 C52.0863364,103.179399 47.2167262,103.828326 42.6075479,104.036697 C21.173558,103.828326 4.16074286,92.6111588 3.96349282,79.266055 L3.96349282,74.3119266 C11.0028533,84.5459228 25.334301,91.4060086 42.6075479,91.1559633 C48.449539,91.4060086 54.4286805,90.4789699 59.4523924,89.1743119 L61.4341388,84.2201835 C55.4765714,85.9982832 48.9734844,87.2343348 42.6075479,87.1926606 C21.173558,87.2343348 4.16074286,76.0171674 3.96349282,62.4220183 L3.96349282,58.4587156 C11.0028533,67.9210301 25.3034805,74.7811158 42.6075479,74.3119266 C50.3912189,74.7811158 58.0038373,73.1433477 64.4067584,70.3486239 L65.3976316,65.3944954 C59.1441892,68.6935623 51.0384457,70.6094421 42.6075479,70.3486239 C21.173558,70.6094421 4.16074286,59.3922747 3.96349282,45.5779817 L3.96349282,41.6146789 C11.0028533,51.2961373 25.334301,58.1562231 42.6075479,58.4587156 C52.42536,58.1562231 61.7330959,55.5605151 69.3611244,51.5229358 L70.3519976,45.5779817 C63.4282134,50.7090129 53.3191492,54.0154506 42.6075479,54.4954128 C21.173558,54.0154506 4.16074286,42.7982832 3.96349282,28.733945 C4.16074286,15.3579399 21.173558,4.14077253 42.6075479,3.96330275 C55.3841105,4.14077253 67.2499326,8.62145924 74.3154904,15.853211 L75.0035968,17 L80,17.0197348 L79.2698565,15.853211 C72.242824,6.30386266 58.1887593,0 42.6075479,0 C18.8928546,0 0,13.0712446 0,28.733945 L0,29.7247706 L0,80.2568807 C0.832148571,95.5467812 19.2935187,108 42.6075479,108 C58.0038373,108 71.8421599,101.943348 79.2698565,93.1376147 Z"/>
      <path fill="#FABF2C" d="M70,128 L78,94 L55,104 L69,45 L42,45 L49,16 L135,16 L128,45 L100,45 L94,61 L125,48 L70,128 Z M84,87 L80,107 L113,57 L86,69 L98,41 L125,41 L130,20 L52,20 L47,41 L74,41 L61,97 L84,87 Z"/>
    </g>
    <path fill="#253137" fill-rule="nonzero" d="M192.112305,35.4052735 L192.153321,35.5283203 C192.208008,38.7138832 191.237315,41.2089754 189.241211,43.0136719 C187.245108,44.8183684 184.490252,45.7207032 180.976563,45.7207032 C177.394514,45.7207032 174.502941,44.5688592 172.301758,42.2651368 C170.100575,39.9614143 169,36.9843933 169,33.3339844 L169,27.4072266 C169,23.7704897 170.073232,20.7934687 172.219727,18.4760743 C174.366222,16.1586799 177.1826,15 180.668946,15 C184.305683,15 187.149404,15.888663 189.200196,17.6660157 C191.250987,19.4433683 192.249024,21.9452964 192.194336,25.171875 L192.153321,25.2949219 L186.329102,25.2949219 C186.329102,23.3808498 185.867681,21.9555711 184.944825,21.019043 C184.021968,20.0825149 182.59669,19.6142579 180.668946,19.6142579 C178.877921,19.6142579 177.479986,20.335442 176.475098,21.7778321 C175.47021,23.2202221 174.967774,25.0829964 174.967774,27.366211 L174.967774,33.3339844 C174.967774,35.6308709 175.497554,37.503899 176.557129,38.953125 C177.616705,40.402351 179.089835,41.1269532 180.976563,41.1269532 C182.767587,41.1269532 184.104,40.6586961 184.98584,39.722168 C185.867681,38.7856399 186.308594,37.3466894 186.308594,35.4052735 L192.112305,35.4052735 Z M224.997657,33.046875 C224.997657,36.7246278 223.842395,39.7563358 221.531836,42.1420899 C219.221278,44.527844 216.213496,45.7207032 212.508399,45.7207032 C208.816974,45.7207032 205.822864,44.5244261 203.525977,42.131836 C201.229091,39.7392459 200.080665,36.7109559 200.080665,33.046875 L200.080665,27.6738282 C200.080665,24.0234193 201.225673,20.9985472 203.515723,18.5991211 C205.805774,16.1996951 208.789631,15 212.467383,15 C216.17248,15 219.187098,16.1996951 221.511329,18.5991211 C223.835559,20.9985472 224.997657,24.0234193 224.997657,27.6738282 L224.997657,33.046875 Z M219.029883,27.6328125 C219.029883,25.3085822 218.448834,23.4013747 217.286719,21.9111329 C216.124604,20.420891 214.518175,19.6757813 212.467383,19.6757813 C210.443936,19.6757813 208.868268,20.420891 207.740333,21.9111329 C206.612397,23.4013747 206.048438,25.3085822 206.048438,27.6328125 L206.048438,33.046875 C206.048438,35.4121212 206.615815,37.3398363 207.750586,38.8300782 C208.885358,40.32032 210.471279,41.0654297 212.508399,41.0654297 C214.55919,41.0654297 216.158784,40.32032 217.307227,38.8300782 C218.45567,37.3398363 219.029883,35.4121212 219.029883,33.046875 L219.029883,27.6328125 Z M240.533399,45.2900391 L234.545118,45.2900391 L234.545118,15.4306641 L240.533399,15.4306641 L240.533399,45.2900391 Z M274.997852,45.2900391 L269.009571,45.2900391 L256.971485,25.1513672 L256.848438,25.171875 L256.848438,45.2900391 L250.860157,45.2900391 L250.860157,15.4306641 L256.848438,15.4306641 L268.886524,35.5488282 L269.009571,35.5283203 L269.009571,15.4306641 L274.997852,15.4306641 L274.997852,45.2900391 Z M305.114649,20.0449219 L296.583399,20.0449219 L296.583399,45.2900391 L290.595118,45.2900391 L290.595118,20.0449219 L282.186915,20.0449219 L282.186915,15.4306641 L305.114649,15.4306641 L305.114649,20.0449219 Z M329.858399,32.1650391 L318.784181,32.1650391 L318.784181,40.6962891 L331.950196,40.6962891 L331.950196,45.2900391 L312.795899,45.2900391 L312.795899,15.4306641 L331.909181,15.4306641 L331.909181,20.0449219 L318.784181,20.0449219 L318.784181,27.5507813 L329.858399,27.5507813 L329.858399,32.1650391 Z M346.542579,40.6962891 L359.913673,40.6962891 L359.913673,45.2900391 L340.554298,45.2900391 L340.554298,15.4306641 L346.542579,15.4306641 L346.542579,40.6962891 Z M385.354689,32.1650391 L374.28047,32.1650391 L374.28047,40.6962891 L387.446485,40.6962891 L387.446485,45.2900391 L368.292189,45.2900391 L368.292189,15.4306641 L387.40547,15.4306641 L387.40547,20.0449219 L374.28047,20.0449219 L374.28047,27.5507813 L385.354689,27.5507813 L385.354689,32.1650391 Z M418.937306,41.2089844 C418.007614,42.4257874 416.619932,43.4819292 414.77422,44.3774414 C412.928508,45.2729537 410.549625,45.7207032 407.637501,45.7207032 C404.028108,45.7207032 401.075013,44.5859489 398.778126,42.3164063 C396.48124,40.0468637 395.332814,37.1006041 395.332814,33.4775391 L395.332814,27.2431641 C395.332814,23.6337711 396.44706,20.6909294 398.675587,18.4145508 C400.904114,16.1381722 403.768343,15 407.268361,15 C410.918769,15 413.71464,15.8647375 415.656056,17.5942383 C417.597472,19.3237392 418.533986,21.630845 418.465626,24.515625 L418.424611,24.6386719 L412.784962,24.6386719 C412.784962,23.0527265 412.326959,21.8188521 411.410939,20.9370118 C410.494918,20.0551714 409.161924,19.6142579 407.411915,19.6142579 C405.579875,19.6142579 404.103327,20.3217703 402.982228,21.7368164 C401.861128,23.1518626 401.300587,24.9736217 401.300587,27.2021485 L401.300587,33.4775391 C401.300587,35.7334098 401.8748,37.5722586 403.023243,38.9941407 C404.171687,40.4160228 405.709757,41.1269532 407.637501,41.1269532 C409.059383,41.1269532 410.183884,40.9833999 411.011036,40.6962891 C411.838189,40.4091783 412.477343,40.0468772 412.928517,39.609375 L412.928517,33.8261719 L407.186329,33.8261719 L407.186329,29.6835938 L418.937306,29.6835938 L418.937306,41.2089844 Z M434.411525,33.3544922 L434.411525,45.2900391 L428.423243,45.2900391 L428.423243,15.4306641 L438.759181,15.4306641 C442.163495,15.4306641 444.826066,16.2065352 446.746974,17.7583008 C448.667882,19.3100664 449.628322,21.473619 449.628322,24.2490235 C449.628322,25.7802811 449.221587,27.1030218 448.408107,28.2172852 C447.594626,29.3315486 446.408603,30.2304654 444.850001,30.9140625 C446.613682,31.4335964 447.881736,32.3017518 448.6542,33.5185547 C449.426665,34.7353577 449.812892,36.2392489 449.812892,38.0302735 L449.812892,40.2246094 C449.812892,41.058598 449.925684,41.9301713 450.151271,42.8393555 C450.376858,43.7485397 450.763084,44.4218728 451.309962,44.859375 L451.309962,45.2900391 L445.137111,45.2900391 C444.590233,44.8525369 444.238186,44.1279348 444.080958,43.116211 C443.923731,42.1044872 443.845118,41.1269579 443.845118,40.1835938 L443.845118,38.0712891 C443.845118,36.5810473 443.438384,35.4223675 442.624904,34.5952149 C441.811423,33.7680623 440.659579,33.3544922 439.169337,33.3544922 L434.411525,33.3544922 Z M434.411525,28.7402344 L438.656642,28.7402344 C440.338291,28.7402344 441.589255,28.3847692 442.409572,27.6738282 C443.229888,26.9628871 443.64004,25.9101633 443.64004,24.515625 C443.64004,23.1484307 443.22647,22.0615275 442.399318,21.2548829 C441.572165,20.4482382 440.358798,20.0449219 438.759181,20.0449219 L434.411525,20.0449219 L434.411525,28.7402344 Z M475.151369,38.850586 L465.471681,38.850586 L463.461915,45.2900391 L457.207033,45.2900391 L467.276369,15.4306641 L473.408204,15.4306641 L483.436525,45.2900391 L477.181642,45.2900391 L475.151369,38.850586 Z M466.948244,34.1542969 L473.695314,34.1542969 L470.393556,23.6337891 L470.270509,23.6337891 L466.948244,34.1542969 Z M496.6959,34.4619141 L496.6959,45.2900391 L490.707619,45.2900391 L490.707619,15.4306641 L502.13047,15.4306641 C505.562128,15.4306641 508.262296,16.3056554 510.231056,18.0556641 C512.199816,19.8056728 513.184181,22.1093608 513.184181,24.9667969 C513.184181,27.8242331 512.199816,30.1210851 510.231056,31.8574219 C508.262296,33.5937587 505.562128,34.4619141 502.13047,34.4619141 L496.6959,34.4619141 Z M496.6959,29.8476563 L502.13047,29.8476563 C503.798447,29.8476563 505.063083,29.393071 505.924415,28.4838868 C506.785748,27.5747025 507.216408,26.4160227 507.216408,25.0078125 C507.216408,23.5722585 506.789166,22.3862352 505.934669,21.4497071 C505.080173,20.5131789 503.812119,20.0449219 502.13047,20.0449219 L496.6959,20.0449219 L496.6959,29.8476563 Z M546.008009,45.2900391 L540.019728,45.2900391 L540.019728,32.8828125 L527.858595,32.8828125 L527.858595,45.2900391 L521.870314,45.2900391 L521.870314,15.4306641 L527.858595,15.4306641 L527.858595,28.2685547 L540.019728,28.2685547 L540.019728,15.4306641 L546.008009,15.4306641 L546.008009,45.2900391 Z"/>
    <path fill="#253137" d="M180.24707,95 L176.395996,95 L176.395996,74.7456055 L169.467285,74.7456055 L169.467285,71.4423828 L187.175781,71.4423828 L187.175781,74.7456055 L180.24707,74.7456055 L180.24707,95 Z M204.960547,95 L201.157812,95 L201.157812,84.0429688 C201.157812,82.6679619 200.881204,81.6420932 200.327978,80.965332 C199.774753,80.2885708 198.896588,79.9501953 197.693457,79.9501953 C196.103605,79.9501953 194.935404,80.4255324 194.188818,81.3762207 C193.442232,82.3269091 193.068945,83.9194224 193.068945,86.1538086 L193.068945,95 L189.282324,95 L189.282324,69.9277344 L193.068945,69.9277344 L193.068945,76.2924805 C193.068945,77.3129934 193.004493,78.4033145 192.875586,79.5634766 L193.117285,79.5634766 C193.632913,78.7040973 194.349946,78.0380883 195.268408,77.5654297 C196.18687,77.0927711 197.258392,76.8564453 198.483008,76.8564453 C202.801389,76.8564453 204.960547,79.0317165 204.960547,83.3823242 L204.960547,95 Z M216.912304,95.3222656 C214.140806,95.3222656 211.973592,94.5139241 210.410595,92.8972168 C208.847599,91.2805095 208.066113,89.0542134 208.066113,86.2182617 C208.066113,83.3071144 208.791203,81.0190513 210.241406,79.3540039 C211.691609,77.6889565 213.684264,76.8564453 216.219433,76.8564453 C218.571984,76.8564453 220.430364,77.5707936 221.794629,78.9995117 C223.158893,80.4282298 223.841015,82.3940305 223.841015,84.8969727 L223.841015,86.9433594 L211.965527,86.9433594 C212.019238,88.6728602 212.486519,90.0021926 213.367383,90.9313965 C214.248246,91.8606003 215.488957,92.3251953 217.08955,92.3251953 C218.14229,92.3251953 219.122505,92.2258311 220.030224,92.0270996 C220.937944,91.8283681 221.912787,91.4980492 222.954785,91.0361328 L222.954785,94.1137695 C222.030952,94.5542014 221.096391,94.8657217 220.151074,95.0483398 C219.205757,95.2309579 218.126178,95.3222656 216.912304,95.3222656 Z M216.219433,79.7246094 C215.016302,79.7246094 214.052201,80.1059532 213.327099,80.8686523 C212.601998,81.6313515 212.169629,82.7431568 212.02998,84.2041016 L220.118847,84.2041016 C220.097363,82.7324145 219.742874,81.6179237 219.055371,80.8605957 C218.367867,80.1032677 217.422564,79.7246094 216.219433,79.7246094 Z M238.737206,95 L234.918359,95 L234.918359,71.4423828 L248.211816,71.4423828 L248.211816,74.6972656 L238.737206,74.6972656 L238.737206,82.0610352 L247.615624,82.0610352 L247.615624,85.3320312 L238.737206,85.3320312 L238.737206,95 Z M263.547363,95 L263.015624,92.6635742 L262.822265,92.6635742 C262.295895,93.4907268 261.546635,94.1406226 260.574462,94.6132812 C259.602289,95.0859399 258.49317,95.3222656 257.24707,95.3222656 C255.087879,95.3222656 253.476567,94.7851616 252.413085,93.7109375 C251.349603,92.6367134 250.81787,91.0092882 250.81787,88.8286133 L250.81787,77.1787109 L254.636718,77.1787109 L254.636718,88.1679688 C254.636718,89.5322334 254.916012,90.5554165 255.474609,91.2375488 C256.033205,91.9196811 256.908685,92.2607422 258.101074,92.2607422 C259.690925,92.2607422 260.859126,91.7854051 261.605712,90.8347168 C262.352298,89.8840284 262.725585,88.2915151 262.725585,86.0571289 L262.725585,77.1787109 L266.52832,77.1787109 L266.52832,95 L263.547363,95 Z M277.464941,92.2607422 C278.388773,92.2607422 279.312592,92.1157241 280.236425,91.8256836 L280.236425,94.6777344 C279.817478,94.8603525 279.277688,95.0134271 278.61704,95.1369629 C277.956392,95.2604987 277.271585,95.3222656 276.562597,95.3222656 C272.974688,95.3222656 271.180761,93.4316595 271.180761,89.6503906 L271.180761,80.046875 L268.747655,80.046875 L268.747655,78.3710938 L271.358007,76.9853516 L272.647069,73.2148438 L274.983495,73.2148438 L274.983495,77.1787109 L280.059179,77.1787109 L280.059179,80.046875 L274.983495,80.046875 L274.983495,89.5859375 C274.983495,90.499028 275.211764,91.1730935 275.66831,91.6081543 C276.124855,92.0432151 276.723726,92.2607422 277.464941,92.2607422 Z M295.265819,95 L294.734081,92.6635742 L294.540722,92.6635742 C294.014352,93.4907268 293.265092,94.1406226 292.292919,94.6132812 C291.320746,95.0859399 290.211626,95.3222656 288.965526,95.3222656 C286.806336,95.3222656 285.195024,94.7851616 284.131542,93.7109375 C283.06806,92.6367134 282.536327,91.0092882 282.536327,88.8286133 L282.536327,77.1787109 L286.355175,77.1787109 L286.355175,88.1679688 C286.355175,89.5322334 286.634469,90.5554165 287.193065,91.2375488 C287.751662,91.9196811 288.627141,92.2607422 289.81953,92.2607422 C291.409382,92.2607422 292.577583,91.7854051 293.324169,90.8347168 C294.070755,89.8840284 294.444042,88.2915151 294.444042,86.0571289 L294.444042,77.1787109 L298.246776,77.1787109 L298.246776,95 L295.265819,95 Z M311.584276,76.8564453 C312.346975,76.8564453 312.975387,76.9101557 313.46953,77.0175781 L313.098925,80.5463867 C312.561813,80.4174798 312.003224,80.3530273 311.423143,80.3530273 C309.908487,80.3530273 308.681205,80.847163 307.741259,81.8354492 C306.801313,82.8237354 306.331347,84.107414 306.331347,85.6865234 L306.331347,95 L302.544725,95 L302.544725,77.1787109 L305.509569,77.1787109 L306.009081,80.3208008 L306.20244,80.3208008 C306.793264,79.2573189 307.564008,78.4140656 308.514696,77.7910156 C309.465384,77.1679656 310.488568,76.8564453 311.584276,76.8564453 Z M322.794823,95.3222656 C320.023325,95.3222656 317.85611,94.5139241 316.293114,92.8972168 C314.730118,91.2805095 313.948632,89.0542134 313.948632,86.2182617 C313.948632,83.3071144 314.673722,81.0190513 316.123924,79.3540039 C317.574127,77.6889565 319.566783,76.8564453 322.101952,76.8564453 C324.454503,76.8564453 326.312883,77.5707936 327.677147,78.9995117 C329.041412,80.4282298 329.723534,82.3940305 329.723534,84.8969727 L329.723534,86.9433594 L317.848046,86.9433594 C317.901757,88.6728602 318.369037,90.0021926 319.249901,90.9313965 C320.130765,91.8606003 321.371475,92.3251953 322.972069,92.3251953 C324.024809,92.3251953 325.005023,92.2258311 325.912743,92.0270996 C326.820462,91.8283681 327.795306,91.4980492 328.837303,91.0361328 L328.837303,94.1137695 C327.913471,94.5542014 326.97891,94.8657217 326.033592,95.0483398 C325.088275,95.2309579 324.008696,95.3222656 322.794823,95.3222656 Z M322.101952,79.7246094 C320.898821,79.7246094 319.934719,80.1059532 319.209618,80.8686523 C318.484517,81.6313515 318.052148,82.7431568 317.912499,84.2041016 L326.001366,84.2041016 C325.979881,82.7324145 325.625393,81.6179237 324.937889,80.8605957 C324.250386,80.1032677 323.305083,79.7246094 322.101952,79.7246094 Z M356.205174,86.0571289 C356.205174,88.9682763 355.4586,91.2402262 353.965428,92.8730469 C352.472257,94.5058675 350.393664,95.3222656 347.729588,95.3222656 C346.064541,95.3222656 344.592876,94.9462928 343.314549,94.1943359 C342.036223,93.4423791 341.053322,92.3628 340.365819,90.9555664 C339.678315,89.5483328 339.334569,87.9155366 339.334569,86.0571289 C339.334569,83.167466 340.075772,80.9116292 341.558202,79.2895508 C343.040631,77.6674724 345.129965,76.8564453 347.826268,76.8564453 C350.404406,76.8564453 352.445401,77.686271 353.949315,79.3459473 C355.453229,81.0056235 356.205174,83.2426617 356.205174,86.0571289 Z M343.233983,86.0571289 C343.233983,90.1714073 344.753987,92.2285156 347.794041,92.2285156 C350.801869,92.2285156 352.30576,90.1714073 352.30576,86.0571289 C352.30576,81.9858195 350.791127,79.9501953 347.761815,79.9501953 C346.171963,79.9501953 345.019875,80.4765572 344.305516,81.5292969 C343.591157,82.5820365 343.233983,84.0912988 343.233983,86.0571289 Z M368.398631,80.046875 L364.048045,80.046875 L364.048045,95 L360.245311,95 L360.245311,80.046875 L357.312694,80.046875 L357.312694,78.2744141 L360.245311,77.1142578 L360.245311,75.9541016 C360.245311,73.8486223 360.739446,72.2883352 361.727733,71.2731934 C362.716019,70.2580516 364.225281,69.7504883 366.255565,69.7504883 C367.587603,69.7504883 368.898136,69.9707009 370.187205,70.4111328 L369.188182,73.2792969 C368.253607,72.9785141 367.362014,72.828125 366.513377,72.828125 C365.653998,72.828125 365.028272,73.0939915 364.63618,73.6257324 C364.244088,74.1574734 364.048045,74.9550728 364.048045,76.0185547 L364.048045,77.1787109 L368.398631,77.1787109 L368.398631,80.046875 Z M388.386619,95 L381.554588,75.3256836 L381.425682,75.3256836 C381.6083,78.2475732 381.699607,80.9868036 381.699607,83.543457 L381.699607,95 L378.203025,95 L378.203025,71.4423828 L383.633201,71.4423828 L390.175193,90.1821289 L390.271873,90.1821289 L397.007225,71.4423828 L402.453514,71.4423828 L402.453514,95 L398.747459,95 L398.747459,83.3500977 C398.747459,82.1791934 398.777,80.653818 398.836082,78.7739258 C398.895164,76.8940336 398.946189,75.7553731 398.989158,75.3579102 L398.860252,75.3579102 L391.786521,95 L388.386619,95 Z M422.961424,86.0571289 C422.961424,88.9682763 422.214849,91.2402262 420.721678,92.8730469 C419.228506,94.5058675 417.149914,95.3222656 414.485838,95.3222656 C412.82079,95.3222656 411.349125,94.9462928 410.070799,94.1943359 C408.792472,93.4423791 407.809572,92.3628 407.122068,90.9555664 C406.434565,89.5483328 406.090818,87.9155366 406.090818,86.0571289 C406.090818,83.167466 406.832022,80.9116292 408.314451,79.2895508 C409.79688,77.6674724 411.886215,76.8564453 414.582517,76.8564453 C417.160655,76.8564453 419.20165,77.686271 420.705564,79.3459473 C422.209478,81.0056235 422.961424,83.2426617 422.961424,86.0571289 Z M409.990232,86.0571289 C409.990232,90.1714073 411.510237,92.2285156 414.550291,92.2285156 C417.558118,92.2285156 419.06201,90.1714073 419.06201,86.0571289 C419.06201,81.9858195 417.547376,79.9501953 414.518064,79.9501953 C412.928213,79.9501953 411.776124,80.4765572 411.061765,81.5292969 C410.347406,82.5820365 409.990232,84.0912988 409.990232,86.0571289 Z M441.890232,95 L438.087498,95 L438.087498,84.0429688 C438.087498,82.6679619 437.810889,81.6420932 437.257664,80.965332 C436.704438,80.2885708 435.826273,79.9501953 434.623142,79.9501953 C433.022548,79.9501953 431.851662,80.4228468 431.110447,81.3681641 C430.369232,82.3134813 429.998631,83.8979381 429.998631,86.121582 L429.998631,95 L426.212009,95 L426.212009,77.1787109 L429.176853,77.1787109 L429.708591,79.5151367 L429.901951,79.5151367 C430.439063,78.6664997 431.201751,78.0112328 432.190037,77.5493164 C433.178323,77.0874 434.274015,76.8564453 435.477146,76.8564453 C439.752558,76.8564453 441.890232,79.0317165 441.890232,83.3823242 L441.890232,95 Z M453.84199,95.3222656 C451.070492,95.3222656 448.903277,94.5139241 447.340281,92.8972168 C445.777285,91.2805095 444.995798,89.0542134 444.995798,86.2182617 C444.995798,83.3071144 445.720889,81.0190513 447.171091,79.3540039 C448.621294,77.6889565 450.61395,76.8564453 453.149119,76.8564453 C455.501669,76.8564453 457.360049,77.5707936 458.724314,78.9995117 C460.088579,80.4282298 460.770701,82.3940305 460.770701,84.8969727 L460.770701,86.9433594 L448.895212,86.9433594 C448.948924,88.6728602 449.416204,90.0021926 450.297068,90.9313965 C451.177932,91.8606003 452.418642,92.3251953 454.019236,92.3251953 C455.071975,92.3251953 456.05219,92.2258311 456.95991,92.0270996 C457.867629,91.8283681 458.842473,91.4980492 459.88447,91.0361328 L459.88447,94.1137695 C458.960637,94.5542014 458.026077,94.8657217 457.080759,95.0483398 C456.135442,95.2309579 455.055863,95.3222656 453.84199,95.3222656 Z M453.149119,79.7246094 C451.945988,79.7246094 450.981886,80.1059532 450.256785,80.8686523 C449.531683,81.6313515 449.099315,82.7431568 448.959666,84.2041016 L457.048533,84.2041016 C457.027048,82.7324145 456.67256,81.6179237 455.985056,80.8605957 C455.297553,80.1032677 454.35225,79.7246094 453.149119,79.7246094 Z M460.605271,77.1787109 L464.730271,77.1787109 L468.355759,87.2817383 C468.903613,88.7211986 469.268844,90.0747007 469.451462,91.3422852 L469.580369,91.3422852 C469.677049,90.7514619 469.854293,90.034428 470.112107,89.1911621 C470.369921,88.3478962 471.734165,84.3437858 474.20488,77.1787109 L478.297654,77.1787109 L470.676072,97.3686523 C469.290323,101.074726 466.980775,102.927734 463.747361,102.927734 C462.909466,102.927734 462.093068,102.836427 461.298142,102.653809 L461.298142,99.6567383 C461.867481,99.7856452 462.517377,99.8500977 463.247849,99.8500977 C465.07403,99.8500977 466.357709,98.7920028 467.098923,96.6757812 L467.759568,95 L460.605271,77.1787109 Z"/>
  </g>
</svg>
