<svg xmlns="http://www.w3.org/2000/svg" xmlns:xlink="http://www.w3.org/1999/xlink" id="uuid-cac2e299-559c-413e-ab93-8021754c9abd" viewBox="0 0 3399.6599808 714.2600117"><defs><linearGradient id="uuid-5dbb9226-893e-49ba-8385-8a6c67e13a78" x1="812.642487" y1="685.8874927" x2="156.8474879" y2="30.0924935" gradientTransform="translate(0 715.1199989) scale(1 -1)" gradientUnits="userSpaceOnUse"><stop offset="0" stop-color="#c68b27"></stop><stop offset=".5" stop-color="#ffd900"></stop><stop offset="1" stop-color="#cb9124"></stop></linearGradient></defs><path d="m781.3800125,399.4899921c5.1699829,39.3999939,39.4000244,67.8099976,94.9400024,67.8099976,29.0600586,0,67.1700439-10.980011,85.25-29.7099915l50.3800049,49.730011c-33.5799561,34.8800049-88.4799805,51.6699829-136.9199829,51.6699829-109.7999878,0-175.0299683-67.8099976-175.0299683-169.8599854s65.8800049-166.6300049,169.210022-166.6300049,173.0900269,65.8800049,160.8200073,196.9799805h-248.6500244l-.000061.0100098Zm173.0900269-65.230011c-5.1700439-41.3299866-37.4599609-62-82.6699829-62-42.6300049,0-77.5,20.6700134-89.1300049,62h171.7999878Z" style="fill:#fff; stroke-width:0px;"></path><path d="m1190.2100296,79.1499958v451.4500427h-78.1500244V79.1499958h78.1500244Z" style="fill:#fff; stroke-width:0px;"></path><path d="m1356.1900101,399.4899921c5.1700439,39.3999939,39.4000244,67.8099976,94.9399414,67.8099976,29.0600586,0,67.1700439-10.980011,85.25-29.7099915l50.3800049,49.730011c-33.5799561,34.8800049-88.4799805,51.6699829-136.9200439,51.6699829-109.7900391,0-175.0300293-67.8099976-175.0300293-169.8599854s65.8800049-166.6300049,169.2099609-166.6300049,173.0899658,65.8800049,160.8200684,196.9799805h-248.6500244l.0001221.0100098Zm173.0899658-65.230011c-5.1700439-41.3299866-37.4599609-62-82.6700439-62-42.6300049,0-77.5,20.6700134-89.1300049,62h171.8000488Z" style="fill:#fff; stroke-width:0px;"></path><path d="m1958.1199417,489.9099751c-36.8100586,36.1699829-75.5600586,50.3800049-122.7099609,50.3800049-92.3599854,0-169.2099609-55.5400085-169.2099609-168.5700073s76.8599854-168.5700073,169.2099609-168.5700073c45.2099609,0,80.0899658,12.9199982,114.9599609,47.1499939l-49.7299805,52.3099976c-18.7299805-16.7900085-41.9799805-25.1900024-63.9399414-25.1900024-52.9599609,0-91.7099609,38.75-91.7099609,94.2900085,0,60.7099915,41.3299561,93,90.4200439,93,25.1899414,0,50.3800049-7.1000061,69.75-26.480011l52.960083,51.6700134-.0002441.0100098Z" style="fill:#fff; stroke-width:0px;"></path><path d="m2142.1900101,122.4200001v90.4199982h87.8400879v67.8099976h-88.4799805v137.5700073c0,30.3500061,16.7900391,45.2099915,41.3300781,45.2099915,12.2700195,0,26.4799805-3.8800049,38.1101074-9.6900024l21.9599609,67.1699829c-22.6101074,9.039978-41.3300781,12.9199829-65.2299805,13.5599976-69.1101074,2.5800171-114.3200684-36.8099976-114.3200684-116.25v-137.5700073h-59.4199219v-67.8099976h59.4199219v-82.019989l78.7900391-8.3999939-.0002441.0000153Z" style="fill:#fff; stroke-width:0px;"></path><path d="m2385.030098,212.1999989l5.8100586,36.8100128c24.5400391-39.3999939,57.4799805-45.2099915,89.7700195-45.2099915s64.5800781,12.9199982,82.0200195,30.3500061l-35.5200195,68.4599915c-16.1499023-13.5599976-31-20.6700134-56.8400879-20.6700134-41.3300781,0-79.4399414,21.9599915-79.4399414,80.730011v167.9200134h-78.7900391V212.1999989h72.9899902Z" style="fill:#fff; stroke-width:0px;"></path><path d="m2863.6099319,212.1999989h75.5600586v318.3999786h-74.2700195l-3.8798828-46.5c-18.0800781,37.460022-67.8100586,55.539978-103.3400879,56.1900024-94.3000488.6500244-164.0500488-57.480011-164.0500488-169.210022s72.9799805-167.2700043,165.9799805-166.6300049c42.6298828,0,83.3100586,20.0200043,101.3999023,51.6699829l2.5800781-43.9199982.0200195.000061Zm-191.1699219,158.8800201c0,60.7099915,41.9799805,96.8800049,94.3000488,96.8800049,124,0,124-193.1099854,0-193.1099854-52.3100586,0-94.3000488,35.519989-94.3000488,96.230011v-.0000305Z" style="fill:#fff; stroke-width:0px;"></path><path d="m3072.8599319,530.5999775v-244.7799988h-59.4199219v-69.1100006h59.4199219v-21.3099976c0-85.25,57.4799805-124.6500015,121.4199219-124.6500015,27.7700195,0,56.8400879,9.0400009,82.6699219,25.8300018l-29.0600586,58.7699966c-16.7900391-10.9799957-32.2900391-16.7900085-48.4399414-16.7900085-27.1298828,0-47.7900391,18.0800018-47.7900391,56.8399963v21.3099976h93.6499023v69.1099854h-93.6499023v244.7799683h-78.7900391l-.0097656.000061Z" style="fill:#fff; stroke-width:0px;"></path><path d="m3399.6599808,122.4200001c0,61.3600006-93,61.3600006-93,0s93-61.3600006,93,0Zm-85.8999023,88.4799957v319.7000427h78.7900391V210.8999958h-78.7900391Z" style="fill:#fff; stroke-width:0px;"></path><path d="m186.0799942,280.0700092H0l87.8100052-72.0299988h98.269989V0h597.3299866l-55.3900146,72.0300007-164.7199707,214.1799927h-162.7199707v-72.0299988h127.2600098l8.4000244-10.9700012,15.1300049-19.6100006,85.7199707-111.5699997.0800171-.0800018h-379.0500488v208.1199875h-72.0299988l-.0100098.0000305Zm377.2200012,147.9799805h-162.7199707v72.0300293h127.2600098l8.4000244,10.9699707,15.1300049,19.6099854,85.7199707,111.5700073.0800171.0800171h-379.0500488v-208.1199951H0l87.8100052,72.0300293h98.269989v208.039978h597.3299866l-55.3900146-72.0299683-164.7199707-214.1799927v-.000061Zm-269.9700012-34.8999939v213.940033h272.3700256l-52.8300171-68.75-2.5599976-3.2800293h-144.9500122v-141.9100037h197.9299927v-72.0299988h-197.9299927v-141.9199982h144.9500122l2.5599976-3.2799988,52.8300171-68.75h-272.3600159v213.9399872H0v72.0299988h293.340004l-.0100098.0100098Z" style="fill:url(#uuid-5dbb9226-893e-49ba-8385-8a6c67e13a78); stroke-width:0px;"></path></svg>