<svg width="16" height="16" viewBox="0 0 16 16" xmlns="http://www.w3.org/2000/svg">
    <defs>
        <filter color-interpolation-filters="auto" id="ay8j56ywga">
            <feColorMatrix in="SourceGraphic" values="0 0 0 0 0.321569 0 0 0 0 0.964706 0 0 0 0 0.776471 0 0 0 1.000000 0"/>
        </filter>
    </defs>
    <g fill="none" fill-rule="evenodd">
        <path d="M0 0h16v16H0z"/>
        <g filter="url(#ay8j56ywga)">
            <path d="M12.953 3.05A6.967 6.967 0 0 0 8.002 1a6.96 6.96 0 0 0-4.95 2.05A6.954 6.954 0 0 0 1 8c0 1.87.728 3.628 2.05 4.95A6.958 6.958 0 0 0 8 15c1.87 0 3.629-.728 4.953-2.05 2.73-2.729 2.73-7.17 0-9.9zm-1.629 7.473a.637.637 0 0 1-.367.303.541.541 0 0 1-.157.022.636.636 0 0 1-.313-.086l-2.42-1.465c-.081-.045-.181-.1-.234-.17-.308-.178-.462-.363-.462-.549v-4.04a.65.65 0 0 1 1.302 0V8.27l2.358 1.364c.334.193.465.592.293.889z" fill="#383838" fill-rule="nonzero"/>
        </g>
    </g>
</svg>
