<?xml version="1.0" encoding="UTF-8"?>
<svg width="16px" height="16px" viewBox="0 0 16 16" version="1.1" xmlns="http://www.w3.org/2000/svg" xmlns:xlink="http://www.w3.org/1999/xlink">
    <title>编组 28</title>
    <g id="web3-Event-" stroke="none" stroke-width="1" fill="none" fill-rule="evenodd">
        <g id="General-Events-Listing-All-Interaction2" transform="translate(-204.000000, -671.000000)">
            <g id="编组-26" transform="translate(180.000000, 140.000000)">
                <g id="编组-20" transform="translate(0.000000, 505.000000)">
                    <g id="编组-20备份-2" transform="translate(0.000000, 8.000000)">
                        <g id="编组-28" transform="translate(24.000000, 18.000000)">
                            <rect id="矩形" x="0" y="0" width="16" height="16"></rect>
                            <g id="编组" transform="translate(1.000000, 1.000000)">
                                <circle id="椭圆形" stroke="#52F6C6" stroke-linecap="round" stroke-linejoin="round" cx="7" cy="7" r="7"></circle>
                                <path d="M7,11.55 L7,14 L7,11.55 Z" id="路径"></path>
                                <line x1="7" y1="11.55" x2="7" y2="14" id="路径" stroke="#52F6C6" stroke-linecap="round" stroke-linejoin="round"></line>
                                <path d="M11.2,7 L14,7 L11.2,7 Z" id="路径"></path>
                                <line x1="11.2" y1="7" x2="14" y2="7" id="路径" stroke="#52F6C6" stroke-linecap="round" stroke-linejoin="round"></line>
                                <path d="M0,7 L2.45,7 L0,7 Z" id="路径"></path>
                                <line x1="0" y1="7" x2="2.45" y2="7" id="路径" stroke="#52F6C6" stroke-linecap="round" stroke-linejoin="round"></line>
                                <path d="M7,2.45 L7,0 L7,2.45 Z" id="路径"></path>
                                <line x1="7" y1="2.45" x2="7" y2="0" id="路径" stroke="#52F6C6" stroke-linecap="round" stroke-linejoin="round"></line>
                            </g>
                        </g>
                    </g>
                </g>
            </g>
        </g>
    </g>
</svg>