<svg width="20" height="20" viewBox="0 0 20 20" xmlns="http://www.w3.org/2000/svg">
    <g fill-rule="nonzero" fill="none">
        <path d="M18.52 0H1.477C.66 0 0 .645 0 1.44v17.12C0 19.355.66 20 1.476 20h17.042c.815 0 1.482-.644 1.482-1.44V1.44C20 .646 19.333 0 18.518 0h.003z" fill="#0A65C6"/>
        <path d="M17.04 17.043h-2.963v-4.64c0-1.107-.022-2.531-1.543-2.531-1.544 0-1.78 1.204-1.78 2.449v4.722H7.792V7.5h2.845v1.3h.039c.397-.75 1.364-1.54 2.808-1.54 3.001 0 3.556 1.974 3.556 4.545v5.238zM4.447 6.194c-.953 0-1.719-.771-1.719-1.72s.767-1.72 1.72-1.72a1.72 1.72 0 0 1 0 3.44zM5.932 17.043h-2.97V7.5h2.97z" fill="#FFF"/>
    </g>
</svg>
