<?xml version="1.0" encoding="UTF-8"?>
<svg width="90px" height="20px" viewBox="0 0 90 20" version="1.1" xmlns="http://www.w3.org/2000/svg" xmlns:xlink="http://www.w3.org/1999/xlink">
    <title>编组 7</title>
    <g id="web3-Convention" stroke="none" stroke-width="1" fill="none" fill-rule="evenodd">
        <g id="Web3.Convention_Assets" transform="translate(-81.000000, -695.000000)" fill-rule="nonzero">
            <g id="编组-7" transform="translate(81.000000, 695.000000)">
                <path d="M88,0 C89.1045695,0 90,0.8954305 90,2 L90,18 C90,19.1045695 89.1045695,20 88,20 L2,20 C0.8954305,20 0,19.1045695 0,18 L0,2 C0,0.8954305 0.8954305,0 2,0 L88,0 Z" id="矩形" fill="#52F6C6"></path>
                <path d="M88,0.5 L2,0.5 C1.22030388,0.5 0.579551322,1.09488808 0.506866578,1.85553999 L0.5,2 L0.5,18 C0.5,18.7796961 1.09488808,19.4204487 1.85553999,19.4931334 L2,19.5 L88,19.5 C88.7796961,19.5 89.4204487,18.9051119 89.4931334,18.14446 L89.5,18 L89.5,2 C89.5,1.22030388 88.9051119,0.579551322 88.14446,0.506866578 L88,0.5 Z" id="路径" fill="#162F28"></path>
                <g id="编组" transform="translate(5.000000, 4.000000)" fill="#52F6C6">
                    <path d="M9.16558304,7.05423066 C9.30112478,7.66933465 9.42072043,8.2260427 9.52437,8.7243548 C9.57220826,8.93458022 9.61606001,9.14480563 9.65592523,9.35503105 C9.69579045,9.56525646 9.7336624,9.75601656 9.7695411,9.92731135 C9.80541979,10.0986061 9.8353187,10.244596 9.85923783,10.365281 C9.88315696,10.4859659 9.89910305,10.5618807 9.90707609,10.5930252 C9.93099522,10.7487477 9.89511652,10.8519139 9.79944,10.9025237 C9.70376348,10.9531335 9.59612739,10.9784384 9.47653173,10.9784384 C9.43666651,10.9784384 9.37886194,10.9648127 9.30311803,10.9375613 C9.22737412,10.9103098 9.16956955,10.888898 9.12970433,10.8733257 L6.0082578,9.09808887 C5.44217171,9.42510618 4.9279104,9.71708593 4.46547388,9.97402811 C4.26614779,10.0830339 4.06881497,10.1920396 3.8734754,10.3010454 C3.67813583,10.4100512 3.50073561,10.5112708 3.34127475,10.6047044 C3.18181388,10.6981379 3.04427888,10.7759991 2.92866975,10.8382881 C2.81306061,10.9005772 2.73532344,10.9395078 2.69545823,10.95508 C2.61572779,10.9940107 2.53400409,11.0076364 2.45028713,10.9959572 C2.36657017,10.984278 2.29082626,10.95508 2.22305539,10.9083633 C2.15528453,10.8616465 2.10545301,10.8051971 2.07356083,10.739015 C2.04166865,10.6728329 2.0336956,10.6047043 2.04964169,10.5346292 C2.05761473,10.5034847 2.07754734,10.42757 2.10943952,10.306885 C2.1413317,10.1862 2.1772104,10.0421567 2.21707561,9.87475498 C2.25694082,9.70735326 2.30278583,9.52243275 2.35461062,9.31999346 C2.40643541,9.11755418 2.46025345,8.91122182 2.51606474,8.70099641 C2.6356604,8.21825656 2.77120214,7.6732277 2.92268996,7.06590983 C2.4522804,6.66881738 2.02970909,6.31454862 1.65497604,6.00310356 C1.49551518,5.87073941 1.33804757,5.74032179 1.18257321,5.6118507 C1.02709886,5.48337961 0.887570596,5.36658771 0.763988429,5.261475 C0.640406262,5.1563623 0.538749958,5.0707149 0.459019517,5.00453283 C0.379289075,4.93835075 0.335437334,4.90136665 0.327464293,4.89358052 C0.231787769,4.80793313 0.150064072,4.71255308 0.0822931996,4.60744037 C0.0145223275,4.50232767 -0.0113900636,4.39526843 0.0045560262,4.28626265 C0.0205021161,4.17725687 0.0643538573,4.09160948 0.13611125,4.02932048 C0.207868642,3.96703147 0.287599076,3.92810084 0.375302551,3.91252858 L4.07080821,3.58551126 L5.44615822,0.455488408 C5.49399648,0.330910384 5.56176735,0.223851144 5.64947082,0.134310686 C5.7371743,0.0447702288 5.85676995,0 6.00825779,0 C6.08798822,0 6.15775235,0.017518783 6.21755019,0.052556349 C6.27734802,0.0875939151 6.32717954,0.128471078 6.36704475,0.175187838 C6.40690996,0.221904598 6.4407954,0.268621357 6.46870106,0.315338117 C6.49660672,0.362054877 6.51853259,0.400985509 6.53447867,0.432130013 L7.87394998,3.56215287 L11.5694556,3.90084937 C11.7289165,3.93978001 11.8405391,3.98649677 11.9043235,4.04099965 C11.9681078,4.09550253 12,4.18114993 12,4.29794182 C12,4.40694759 11.9661146,4.50232764 11.8983437,4.58408198 C11.8305728,4.66583631 11.7448626,4.76510942 11.641213,4.88190131 L9.16558304,7.05423066 Z" id="路径"></path>
                </g>
                <path d="M28.538,15 L29.868,13.656 L29.868,10.478 L28.552,9.148 L25.108,9.148 L25.108,7.16 L27.614,7.16 L27.614,8.112 L29.868,8.112 L29.868,6.572 L28.538,5.228 L24.17,5.228 L22.84,6.558 L22.84,9.75 L24.17,11.08 L27.614,11.08 L27.614,13.068 L25.108,13.068 L25.108,12.116 L22.84,12.116 L22.84,13.67 L24.17,15 L28.538,15 Z M34.096,15 L34.096,11.668 L37.344,11.668 L38.674,10.338 L38.674,6.558 L37.344,5.228 L31.828,5.228 L31.828,15 L34.096,15 Z M36.406,9.75 L34.096,9.75 L34.096,7.16 L36.406,7.16 L36.406,9.75 Z M46.108,15 L46.108,13.068 L42.482,13.068 L42.482,11.08 L45.534,11.08 L45.534,9.148 L42.482,9.148 L42.482,7.16 L46.08,7.16 L46.08,5.228 L40.214,5.228 L40.214,15 L46.108,15 Z M49.314,15 L49.874,13.082 L53.108,13.082 L53.668,15 L56.048,15 L52.982,5.228 L50,5.228 L46.948,15 L49.314,15 Z M52.52,11.15 L50.462,11.15 L51.498,7.72 L52.52,11.15 Z M59.366,15 L59.366,10.758 L61.802,15 L64.406,15 L61.648,10.17 L64.35,5.228 L61.746,5.228 L59.366,9.372 L59.366,5.228 L57.098,5.228 L57.098,15 L59.366,15 Z M71.77,15 L71.77,13.068 L68.144,13.068 L68.144,11.08 L71.196,11.08 L71.196,9.148 L68.144,9.148 L68.144,7.16 L71.742,7.16 L71.742,5.228 L65.876,5.228 L65.876,15 L71.77,15 Z M76.054,15 L76.054,11.01 L76.698,11.01 L78.504,15 L81.108,15 L79.302,11.01 L80.646,9.75 L80.646,6.558 L79.302,5.228 L73.8,5.228 L73.8,15 L76.054,15 Z M78.378,9.148 L76.054,9.148 L76.054,7.16 L78.378,7.16 L78.378,9.148 Z" id="Speaker" fill="#52F6C6"></path>
            </g>
        </g>
    </g>
</svg>