<svg width="20" height="20" viewBox="0 0 20 20" xmlns="http://www.w3.org/2000/svg">
    <g fill="none" fill-rule="evenodd">
        <rect fill="#1A96EA" width="20" height="20" rx="1"/>
        <path d="M18 5.421a6.246 6.246 0 0 1-1.767.477 3.048 3.048 0 0 0 1.353-1.677 6.2 6.2 0 0 1-1.955.735A3.097 3.097 0 0 0 13.386 4c-1.7 0-3.078 1.356-3.078 3.03 0 .237.028.467.08.69a8.784 8.784 0 0 1-6.344-3.166 2.983 2.983 0 0 0-.416 1.523c0 1.051.543 1.979 1.369 2.522a3.105 3.105 0 0 1-1.394-.38v.038c0 1.469 1.06 2.693 2.468 2.971a3.14 3.14 0 0 1-1.39.053 3.074 3.074 0 0 0 2.875 2.103A6.24 6.24 0 0 1 3 14.64 8.807 8.807 0 0 0 7.717 16c5.661 0 8.756-4.616 8.756-8.62 0-.13-.003-.262-.009-.391A6.2 6.2 0 0 0 18 5.42z" fill="#FFF" fill-rule="nonzero"/>
    </g>
</svg>
