<svg width="223" height="68" viewBox="0 0 223 68" fill="none" xmlns="http://www.w3.org/2000/svg">
<g clip-path="url(#clip0_6247_138281)">
<path d="M21.7494 0.492737V14.1987H7.64805V0.492737H0V35.1229H7.64805V21.2252H21.7494V35.1229H29.3944V0.492737H21.7494Z" fill="#26272B"/>
<path d="M123.82 0.492676V14.1986H109.715V0.492676H102.07V35.1229H109.715V21.2251H123.82V35.1229H131.465V0.492676H123.82Z" fill="#26272B"/>
<path d="M51.0945 9.40059L55.7115 20.6284H46.4776L51.0945 9.40059ZM47.6662 0.249084L32.7734 35.1259H40.5682L43.7459 27.3565H58.4432L61.6209 35.1259H69.6173L54.7184 0.249084H47.6662Z" fill="#26272B"/>
<path d="M70.1094 30.0783L74.6316 24.6836C77.7574 27.2592 81.0483 28.891 85.0205 28.891C88.1494 28.891 90.0347 27.655 90.0347 25.6274V25.53C90.0347 23.5968 88.843 22.6104 83.0344 21.1247C76.0188 19.3437 71.4966 17.4136 71.4966 10.5362V10.4388C71.4966 4.15514 76.5658 -0.000488281 83.6669 -0.000488281C88.7299 -0.000488281 93.0535 1.58565 96.5766 4.40173L92.6044 10.1404C89.5244 8.00936 86.4933 6.72766 83.5691 6.72766C80.6449 6.72766 79.0988 8.06112 79.0988 9.74163V9.8421C79.0988 12.1163 80.5899 12.8622 86.5972 14.3935C93.6463 16.2201 97.6185 18.747 97.6185 24.7841V24.8815C97.6185 31.7588 92.3569 35.6161 84.8585 35.6161C79.4262 35.6356 74.1765 33.6634 70.1094 30.0753" fill="#26272B"/>
<path d="M157.93 0.492676V35.1229H184.394V28.346H165.526V21.0759H181.913V14.296H165.526V7.27258H184.146V0.492676H157.93Z" fill="#26272B"/>
<path d="M211.313 0.492676L202.874 14.3935L194.581 0.492676H185.641L199 21.4717V35.1229H206.645V21.3225L220.003 0.492676H211.313Z" fill="#26272B"/>
<path d="M144.245 0.495605L138.84 5.87813L133.438 11.2606L138.84 16.6462L144.245 11.2606L149.647 5.87813L155.052 0.495605H144.245Z" fill="#26272B"/>
<path d="M46.6562 49.5684L55.3615 58.181L46.6562 66.9124V49.5684Z" fill="#26272B"/>
<path d="M144.412 24.7233L139.077 19.4077L133.742 24.7233H144.412Z" fill="#731058"/>
<path d="M133.742 24.7231L139.077 30.0387L144.412 24.7231H133.742Z" fill="#991D74"/>
<path d="M149.748 30.0387L144.413 24.7232L139.078 30.0387H149.748Z" fill="#BF2E8E"/>
<path d="M139.078 30.0386L144.413 35.3542L149.748 30.0386H139.078Z" fill="#CC529F"/>
<path d="M144.414 35.3542H155.084L149.746 30.0386L144.414 35.3542Z" fill="#D979B3"/>
<path d="M59.75 66.5002V49.0002H72.725V51.7502H62.825V56.3002H71.6V59.0752H62.825V63.7502H72.85V66.5002H59.75Z" fill="#BF2E8E"/>
<path d="M87.523 49.0002H91.048L84.948 57.5502L91.298 66.5002H87.673L83.048 59.8252L78.448 66.5002H74.923L81.248 57.6002L75.173 49.0002H78.798L83.123 55.3252L87.523 49.0002Z" fill="#BF2E8E"/>
<path d="M101.091 66.8002C95.9908 66.8002 92.1908 62.8252 92.1908 57.8002V57.7502C92.1908 52.7752 95.9158 48.7002 101.191 48.7002C104.441 48.7002 106.391 49.8252 108.066 51.4252L106.091 53.7002C104.666 52.4002 103.191 51.5502 101.166 51.5502C97.8658 51.5502 95.4158 54.2752 95.4158 57.7002V57.7502C95.4158 61.1752 97.8408 63.9502 101.191 63.9502C103.316 63.9502 104.716 63.1002 106.216 61.7002L108.191 63.7002C106.416 65.6252 104.341 66.8002 101.091 66.8002Z" fill="#BF2E8E"/>
<path d="M111.197 66.5002V49.0002H114.272V56.2752H122.622V49.0002H125.697V66.5002H122.622V59.1252H114.272V66.5002H111.197Z" fill="#BF2E8E"/>
<path d="M128.441 66.5002L136.141 48.8752H138.991L146.691 66.5002H143.441L141.666 62.2752H133.391L131.591 66.5002H128.441ZM134.516 59.5502H140.541L137.516 52.5502L134.516 59.5502Z" fill="#BF2E8E"/>
<path d="M149.442 66.5002V49.0002H152.292L161.667 61.1002V49.0002H164.692V66.5002H162.117L152.467 54.0502V66.5002H149.442Z" fill="#BF2E8E"/>
<path d="M177.243 66.8002C171.768 66.8002 168.168 62.9002 168.168 57.8002V57.7502C168.168 52.8502 171.893 48.7002 177.193 48.7002C180.218 48.7002 182.118 49.5502 183.918 51.0752L181.968 53.4002C180.618 52.2502 179.268 51.5502 177.068 51.5502C173.868 51.5502 171.393 54.3502 171.393 57.7002V57.7502C171.393 61.3502 173.768 64.0002 177.343 64.0002C179.018 64.0002 180.493 63.4752 181.568 62.6752V59.4252H177.093V56.7252H184.543V64.0752C182.793 65.5502 180.343 66.8002 177.243 66.8002Z" fill="#BF2E8E"/>
<path d="M188.298 66.5002V49.0002H201.273V51.7502H191.373V56.3002H200.148V59.0752H191.373V63.7502H201.398V66.5002H188.298Z" fill="#BF2E8E"/>
<path fill-rule="evenodd" clip-rule="evenodd" d="M59.55 66.7V48.8H72.925V51.95H63.025V56.1H71.8V59.275H63.025V63.55H73.05V66.7H59.55ZM62.825 63.75V59.075H71.6V56.3H62.825V51.75H72.725V49H59.75V66.5H72.85V63.75H62.825ZM87.4186 48.8H91.4365L85.1936 57.5503L91.6852 66.7H87.5684L83.0485 60.1768L78.5532 66.7H74.5356L81.003 57.5996L74.787 48.8H78.9036L83.1245 54.9727L87.4186 48.8ZM83.1231 55.325L78.7981 49H75.1731L81.2481 57.6L74.9231 66.5H78.4481L83.0481 59.825L87.6731 66.5H91.2981L84.9481 57.55L91.0481 49H87.5231L83.1231 55.325ZM108.342 51.4121L106.108 53.9859L105.956 53.8478C104.552 52.567 103.123 51.75 101.166 51.75C97.9909 51.75 95.6159 54.3703 95.6159 57.7V57.75C95.6159 61.0819 97.9679 63.75 101.191 63.75C103.246 63.75 104.599 62.9351 106.079 61.5538L106.222 61.4211L108.467 63.6953L108.338 63.8356C106.53 65.7966 104.403 67 101.091 67C95.8764 67 91.9909 62.9314 91.9909 57.8V57.75C91.9909 52.6704 95.7996 48.5 101.191 48.5C104.501 48.5 106.498 49.651 108.204 51.2804L108.342 51.4121ZM108.066 51.425L106.091 53.7C106.041 53.6548 105.992 53.6102 105.942 53.5662C104.563 52.342 103.121 51.55 101.166 51.55C97.8659 51.55 95.4159 54.275 95.4159 57.7V57.75C95.4159 61.175 97.8409 63.95 101.191 63.95C103.316 63.95 104.716 63.1 106.216 61.7L108.191 63.7C106.416 65.625 104.341 66.8 101.091 66.8C95.9909 66.8 92.1909 62.825 92.1909 57.8V57.75C92.1909 52.775 95.9159 48.7 101.191 48.7C104.441 48.7 106.391 49.825 108.066 51.425ZM110.997 66.7V48.8H114.472V56.075H122.422V48.8H125.897V66.7H122.422V59.325H114.472V66.7H110.997ZM114.272 59.125H122.622V66.5H125.697V49H122.622V56.275H114.272V49H111.197V66.5H114.272V59.125ZM128.136 66.7L136.011 48.675H139.122L146.997 66.7H143.309L141.534 62.475H133.524L131.724 66.7H128.136ZM133.391 62.275H141.666L143.441 66.5H146.691L138.991 48.875H136.141L128.441 66.5H131.591L133.391 62.275ZM140.541 59.55L137.516 52.55L134.516 59.55H140.541ZM134.82 59.35H140.237L137.517 53.0559L134.82 59.35ZM149.242 66.7V48.8H152.39L161.467 60.5153V48.8H164.892V66.7H162.019L152.667 54.6345V66.7H149.242ZM152.467 54.05L162.117 66.5H164.692V49H161.667V61.1L152.292 49H149.442V66.5H152.467V54.05ZM184.2 51.051L181.992 53.6829L181.839 53.5522C180.517 52.4264 179.212 51.75 177.068 51.75C173.996 51.75 171.593 54.4424 171.593 57.7V57.75C171.593 59.5059 172.172 61.0175 173.174 62.0884C174.174 63.158 175.608 63.8 177.343 63.8C178.935 63.8 180.336 63.3138 181.368 62.5734V59.625H176.893V56.525H184.743V64.168L184.672 64.2279C182.895 65.7262 180.401 67 177.243 67C174.457 67 172.135 66.0064 170.51 64.3527C168.886 62.6996 167.968 60.3978 167.968 57.8V57.75C167.968 52.7461 171.776 48.5 177.193 48.5C180.268 48.5 182.213 49.368 184.048 50.9224L184.2 51.051ZM181.568 59.425V62.675C180.493 63.475 179.018 64 177.343 64C173.768 64 171.393 61.35 171.393 57.75V57.7C171.393 54.35 173.868 51.55 177.068 51.55C179.185 51.55 180.515 52.1981 181.815 53.2715C181.866 53.3137 181.917 53.3565 181.968 53.4L183.918 51.0754C183.882 51.045 183.846 51.0143 183.81 50.9844C183.795 50.9718 183.78 50.9593 183.765 50.9468C182.01 49.5024 180.133 48.7 177.193 48.7C171.893 48.7 168.168 52.85 168.168 57.75V57.8C168.168 62.9 171.768 66.8 177.243 66.8C180.343 66.8 182.793 65.55 184.543 64.075V56.725H177.093V59.425H181.568ZM188.098 66.7V48.8H201.473V51.95H191.573V56.1H200.348V59.275H191.573V63.55H201.598V66.7H188.098ZM191.373 63.75V59.075H200.148V56.3H191.373V51.75H201.273V49H188.298V66.5H201.398V63.75H191.373Z" fill="#8E1473"/>
</g>
<defs>
<clipPath id="clip0_6247_138281">
<rect width="223" height="68" fill="white"/>
</clipPath>
</defs>
</svg>
