<?xml version="1.0" encoding="UTF-8"?><svg id="Calque_2" xmlns="http://www.w3.org/2000/svg" viewBox="0 0 733.74 237.41"><defs><style>.cls-1{fill:#89f12e;}.cls-2{fill:#beff00;}.cls-3{fill:#a2ff05;}.cls-4{fill:#dbff55;}.cls-5{fill:#131313;}.cls-6{fill:#40d300;}.cls-7{fill:#34a400;}.cls-8{fill:#49f100;}</style></defs><g id="Calque_1-2"><path class="cls-5" d="m294.71,39.93h9.23c0,7.18,3.42,12.14,14.19,12.14,11.46,0,14.36-4.28,14.36-8.89,0-3.08-1.28-4.87-3.93-5.81-2.82-1.11-8.89-1.88-13.76-2.57-5.64-.77-11.63-2.05-14.71-4.02-3.42-2.14-5.56-5.98-5.56-11.29,0-10.26,8.81-17.44,23.51-17.44,16.67,0,22.74,7.35,22.74,20.18h-9.23c0-8.29-4.53-12.23-13.34-12.23s-13.51,3.5-13.51,8.63c0,3.16,1.11,5.04,3.33,6.07,2.48,1.2,8.81,2.22,13.68,2.91,5.9.94,11.37,1.88,14.88,3.76,3.85,1.97,6.07,5.9,6.07,11.11,0,9.06-5.3,17.53-24.45,17.53s-23.51-9.83-23.51-20.09Z"/><path class="cls-5" d="m346.77,16.93h10.17l8.64,32.66h.17l10.09-32.66h9.49l9.83,32.66h.17l8.89-32.66h9.06l-12.23,42.23h-11.8l-9.15-31.04h-.26l-9.49,31.04h-11.37l-12.23-42.23Z"/><path class="cls-5" d="m420.13,2.57h9.83v9.4h-9.83V2.57Zm.09,14.36h9.58v42.23h-9.58V16.93Z"/><path class="cls-5" d="m438.51,45.06h8.63c0,4.87,2.82,7.87,11.03,7.87,7.78,0,11.2-2.39,11.2-6.24,0-1.62-.6-3.08-2.82-3.85-2.05-.77-6.07-1.2-10.77-1.62-6.58-.6-11.03-1.45-13.59-3.33-2.31-1.71-3.68-4.79-3.68-8.04,0-8.46,8.21-13.59,19.66-13.59,13.17,0,18.98,5.47,18.98,15.05h-8.63c-.09-5.47-3.08-8.12-10.09-8.12s-10.43,2.39-10.43,5.98c0,1.8.43,3.5,2.91,4.36,2.05.68,6.07,1.11,11.2,1.62,5.98.6,9.4,1.2,12.4,2.91,2.82,1.54,4.45,4.79,4.45,8.21,0,8.55-7.18,13.59-20.69,13.59-14.53,0-19.75-6.5-19.75-14.79Z"/><path class="cls-5" d="m485.96,45.06h8.63c0,4.87,2.82,7.87,11.03,7.87,7.78,0,11.2-2.39,11.2-6.24,0-1.62-.6-3.08-2.82-3.85-2.05-.77-6.07-1.2-10.77-1.62-6.58-.6-11.03-1.45-13.59-3.33-2.31-1.71-3.68-4.79-3.68-8.04,0-8.46,8.21-13.59,19.66-13.59,13.17,0,18.98,5.47,18.98,15.05h-8.63c-.09-5.47-3.08-8.12-10.09-8.12s-10.43,2.39-10.43,5.98c0,1.8.43,3.5,2.91,4.36,2.05.68,6.07,1.11,11.2,1.62,5.98.6,9.4,1.2,12.4,2.91,2.82,1.54,4.45,4.79,4.45,8.21,0,8.55-7.18,13.59-20.69,13.59-14.53,0-19.75-6.5-19.75-14.79Z"/><path class="cls-5" d="m296.41,85.12h23.77c13.17,0,20.01,5.64,20.01,14.71,0,6.41-3.08,10.94-9.06,12.05v.09c7.01,1.03,11.2,5.81,11.2,13.08,0,10.09-6.24,16.33-20.18,16.33h-25.73v-56.26Zm24.71,24.11c6.67,0,9.92-2.91,9.92-7.87s-3.25-8.21-10.94-8.21h-13.42v16.07h14.45Zm.85,24.11c7.69,0,10.6-3.59,10.6-9.32,0-4.87-3.93-8.12-10.94-8.12h-14.96v17.44h15.3Z"/><path class="cls-5" d="m350.88,82.13h9.58v59.25h-9.58v-59.25Z"/><path class="cls-5" d="m369.09,120.35c0-13.51,8.63-21.89,22.06-21.89s22.14,8.38,22.14,21.89-8.63,21.72-22.14,21.72-22.06-8.29-22.06-21.72Zm34.63,0c0-8.63-4.79-14.02-12.57-14.02s-12.48,5.39-12.48,14.02,4.7,13.85,12.48,13.85,12.57-5.3,12.57-13.85Z"/><path class="cls-5" d="m420.22,120.26c0-13.51,8.46-21.8,21.2-21.8,11.8,0,19.49,6.84,19.49,18.04h-8.63c-.09-6.33-4.19-10.17-10.6-10.17-7.35,0-11.88,5.21-11.88,13.94s4.45,13.94,11.54,13.94,10.94-3.76,11.03-10h8.64c0,11.29-8.04,17.87-20.09,17.87s-20.69-8.29-20.69-21.8Z"/><path class="cls-5" d="m469.81,82.13h9.58v39.16h.09l22.74-22.14h12.4l-19.75,18.38,20.86,23.85h-13l-14.88-17.78-8.46,7.78v10h-9.58v-59.25Z"/><path class="cls-5" d="m517.6,120.26c0-13.51,8.46-21.8,21.2-21.8,11.8,0,19.49,6.84,19.49,18.04h-8.63c-.09-6.33-4.19-10.17-10.6-10.17-7.35,0-11.88,5.21-11.88,13.94s4.45,13.94,11.54,13.94,10.94-3.76,11.03-10h8.64c0,11.29-8.04,17.87-20.09,17.87s-20.69-8.29-20.69-21.8Z"/><path class="cls-5" d="m567.19,82.13h9.58v19.15c0,2.05-.17,6.92-.26,9.23h.09c2.22-7.7,7.69-12.06,17.61-12.06,10.69,0,17.27,6.07,17.27,16.5v26.42h-9.58v-24.28c0-6.67-3.76-10.43-11.37-10.43-8.46,0-13.76,5.21-13.76,14.71v20.01h-9.58v-59.25Z"/><path class="cls-5" d="m619.43,129.24c0-6.41,4.53-11.46,15.82-11.46h15.65v-2.99c0-6.33-3.68-9.15-11.11-9.15-6.5,0-10.17,2.48-10.17,7.18,0,.26,0,.94.09,1.62h-8.81c-.09-.6-.17-1.71-.17-2.48,0-8.46,7.35-13.51,19.41-13.51,12.82,0,20.35,6.07,20.35,17.18v25.73h-9.58c.17-2.05.43-5.9.43-9.32h-.09c-1.37,6.24-6.41,10-15.73,10s-16.07-4.62-16.07-12.82Zm31.46-4.87v-.77h-14.79c-5.47,0-7.87,1.88-7.87,5.22,0,3.85,3.42,6.07,9.23,6.07,8.29,0,13.42-4.02,13.42-10.52Z"/><path class="cls-5" d="m669.87,84.78h9.83v9.4h-9.83v-9.4Zm.09,14.36h9.58v42.23h-9.58v-42.23Z"/><path class="cls-5" d="m689.54,99.14h9.58l-.34,11.29h.09c2.31-7.61,7.78-11.97,17.61-11.97,10.69,0,17.27,6.07,17.27,16.5v26.42h-9.58v-24.28c0-6.67-3.76-10.43-11.37-10.43-8.38,0-13.68,5.04-13.68,14.28v20.43h-9.58v-42.23Z"/><path class="cls-5" d="m296.41,167.33h10.26v47.71h27.87v8.55h-38.13v-56.26Z"/><path class="cls-5" d="m340.02,211.45c0-6.41,4.53-11.46,15.82-11.46h15.65v-2.99c0-6.33-3.68-9.15-11.11-9.15-6.5,0-10.17,2.48-10.17,7.18,0,.26,0,.94.09,1.62h-8.81c-.09-.6-.17-1.71-.17-2.48,0-8.46,7.35-13.51,19.41-13.51,12.82,0,20.35,6.07,20.35,17.18v25.73h-9.58c.17-2.05.43-5.9.43-9.32h-.09c-1.37,6.24-6.41,10-15.73,10s-16.07-4.62-16.07-12.82Zm31.46-4.87v-.77h-14.79c-5.47,0-7.87,1.88-7.87,5.22,0,3.85,3.42,6.07,9.23,6.07,8.29,0,13.42-4.02,13.42-10.52Z"/><path class="cls-5" d="m399.78,214.61h-.09c0,2.99.17,6.84.34,8.98h-9.58v-59.25h9.58v19.15c0,1.79-.09,5.21-.17,7.27h.09c1.8-6.16,7.61-10.09,15.99-10.09,12.14,0,19.41,8.04,19.41,21.03,0,13.94-7.44,22.57-19.32,22.57-8.72,0-14.53-3.76-16.24-9.66Zm25.99-12.65c0-8.29-4.53-13.42-12.05-13.42-8.38,0-13.68,5.3-13.68,13.85v2.14c0,7.35,5.22,11.88,13.51,11.88,7.52,0,12.23-5.47,12.23-14.45Z"/><path class="cls-5" d="m441.85,209.48h8.63c0,4.87,2.82,7.87,11.03,7.87,7.78,0,11.2-2.39,11.2-6.24,0-1.62-.6-3.08-2.82-3.85-2.05-.77-6.07-1.2-10.77-1.62-6.58-.6-11.03-1.45-13.59-3.33-2.31-1.71-3.68-4.79-3.68-8.04,0-8.46,8.21-13.59,19.66-13.59,13.17,0,18.98,5.47,18.98,15.05h-8.63c-.09-5.47-3.08-8.12-10.09-8.12s-10.43,2.39-10.43,5.98c0,1.8.43,3.5,2.91,4.36,2.05.68,6.07,1.11,11.2,1.62,5.98.6,9.4,1.2,12.4,2.91,2.82,1.54,4.45,4.79,4.45,8.21,0,8.55-7.18,13.59-20.69,13.59-14.53,0-19.75-6.5-19.75-14.79Z"/><rect class="cls-7" x="59.35" y="0" width="59.35" height="59.35" transform="translate(178.06 59.35) rotate(180)"/><rect class="cls-6" x="59.35" y="59.36" width="59.35" height="59.35"/><rect class="cls-8" x="0" y="59.36" width="59.35" height="59.35"/><rect class="cls-1" x="177.95" y="59.36" width="59.35" height="59.35" transform="translate(415.26 178.08) rotate(180)"/><rect class="cls-2" x="118.71" y="118.71" width="59.35" height="59.35"/><rect class="cls-3" x="177.95" y="118.71" width="59.35" height="59.35"/><rect class="cls-1" y="118.71" width="59.35" height="59.35"/><rect class="cls-8" x="178.05" width="59.35" height="59.35" transform="translate(415.45 59.35) rotate(180)"/><rect class="cls-6" x="118.72" y="0" width="59.35" height="59.35" transform="translate(296.78 59.35) rotate(180)"/><rect class="cls-2" x="59.26" y="178.06" width="59.35" height="59.35"/><rect class="cls-4" x="118.6" y="178.06" width="59.35" height="59.35"/><rect class="cls-3" x="0" y="178.06" width="59.35" height="59.35"/></g></svg>