<?xml version="1.0" encoding="UTF-8"?>
<svg width="200px" height="66px" viewBox="0 0 200 66" version="1.1" xmlns="http://www.w3.org/2000/svg" xmlns:xlink="http://www.w3.org/1999/xlink">
    <title>编组备份 6</title>
    <defs>
        <linearGradient x1="50%" y1="2.44930829%" x2="50%" y2="121.160194%" id="linearGradient-1">
            <stop stop-color="#213467" offset="0%"></stop>
            <stop stop-color="#59729E" offset="100%"></stop>
        </linearGradient>
    </defs>
    <g id="页面-1" stroke="none" stroke-width="1" fill="none" fill-rule="evenodd">
        <g id="编组备份-6" transform="translate(1.000000, 0.000000)">
            <g id="编组-3" transform="translate(32.924251, 33.000000) rotate(-45.000000) translate(-32.924251, -33.000000) translate(8.316601, 10.995217)">
                <g id="编组-2" transform="translate(0.000000, 0.000000)">
                    <ellipse id="椭圆形备份-23" fill="#59729E" transform="translate(11.406892, 4.614077) rotate(-360.000000) translate(-11.406892, -4.614077) " cx="11.406892" cy="4.61407726" rx="3.61682074" ry="3.61402856"></ellipse>
                    <ellipse id="椭圆形备份-24" fill="#9FB1D3" transform="translate(2.880061, 4.547151) rotate(-360.000000) translate(-2.880061, -4.547151) " cx="2.88006096" cy="4.54715081" rx="2.88006096" ry="2.87783756"></ellipse>
                    <path d="M28.779579,-7.14628044 C31.2949681,-7.14628044 33.334094,-5.10872882 33.334094,-2.59528151 C33.334094,-1.14276641 32.6530961,0.150815897 31.5927295,0.984069079 L31.4378808,1.11202922 C30.4629582,1.9467245 29.8541017,3.18673073 29.8541017,4.57110842 C29.8541017,6.01014058 30.5225156,7.29317683 31.566036,8.12713629 C32.6420404,8.95827731 33.334094,10.2610285 33.334094,11.7252866 C33.334094,14.2387339 31.2949681,16.2762675 28.779579,16.2762675 C26.2641898,16.2762675 24.2250639,14.2387339 24.2250639,11.7252866 C24.2250639,10.2124015 24.963846,8.87192845 26.1005869,8.0444355 L25.966871,8.15532412 C27.0307836,7.32224587 27.7144377,6.0264535 27.7144377,4.57110842 C27.7144377,3.11576335 27.0307836,1.81997097 25.966871,0.986892724 C24.9060618,0.150815897 24.2250639,-1.14276641 24.2250639,-2.59528151 C24.2250639,-5.10872882 26.2641898,-7.14628044 28.779579,-7.14628044 Z" id="形状结合" fill="url(#linearGradient-1)" transform="translate(28.779579, 4.564994) rotate(-270.000000) translate(-28.779579, -4.564994) "></path>
                </g>
                <g id="编组-2备份-2" transform="translate(0.000000, 23.253052)">
                    <ellipse id="椭圆形备份-23" fill="#59729E" transform="translate(11.406892, 4.614077) rotate(-360.000000) translate(-11.406892, -4.614077) " cx="11.406892" cy="4.61407726" rx="3.61682074" ry="3.61402856"></ellipse>
                    <ellipse id="椭圆形备份-24" fill="#9FB1D3" transform="translate(2.880061, 4.547151) rotate(-360.000000) translate(-2.880061, -4.547151) " cx="2.88006096" cy="4.54715081" rx="2.88006096" ry="2.87783756"></ellipse>
                    <path d="M28.779579,-7.14628044 C31.2949681,-7.14628044 33.334094,-5.10872882 33.334094,-2.59528151 C33.334094,-1.14276641 32.6530961,0.150815897 31.5927295,0.984069079 L31.4378808,1.11202922 C30.4629582,1.9467245 29.8541017,3.18673073 29.8541017,4.57110842 C29.8541017,6.01014058 30.5225156,7.29317683 31.566036,8.12713629 C32.6420404,8.95827731 33.334094,10.2610285 33.334094,11.7252866 C33.334094,14.2387339 31.2949681,16.2762675 28.779579,16.2762675 C26.2641898,16.2762675 24.2250639,14.2387339 24.2250639,11.7252866 C24.2250639,10.2124015 24.963846,8.87192845 26.1005869,8.0444355 L25.966871,8.15532412 C27.0307836,7.32224587 27.7144377,6.0264535 27.7144377,4.57110842 C27.7144377,3.11576335 27.0307836,1.81997097 25.966871,0.986892724 C24.9060618,0.150815897 24.2250639,-1.14276641 24.2250639,-2.59528151 C24.2250639,-5.10872882 26.2641898,-7.14628044 28.779579,-7.14628044 Z" id="形状结合" fill="url(#linearGradient-1)" transform="translate(28.779579, 4.564994) rotate(-270.000000) translate(-28.779579, -4.564994) "></path>
                </g>
                <g id="编组-2备份" transform="translate(28.983316, 16.191520) rotate(-180.000000) translate(-28.983316, -16.191520) translate(8.751330, 11.626526)">
                    <ellipse id="椭圆形备份-23" fill="#59729E" transform="translate(11.406892, 4.614077) rotate(-360.000000) translate(-11.406892, -4.614077) " cx="11.406892" cy="4.61407726" rx="3.61682074" ry="3.61402856"></ellipse>
                    <ellipse id="椭圆形备份-24" fill="#9FB1D3" transform="translate(2.880061, 4.547151) rotate(-360.000000) translate(-2.880061, -4.547151) " cx="2.88006096" cy="4.54715081" rx="2.88006096" ry="2.87783756"></ellipse>
                    <path d="M28.779579,-7.14628044 C31.2949681,-7.14628044 33.334094,-5.10872882 33.334094,-2.59528151 C33.334094,-1.14276641 32.6530961,0.150815897 31.5927295,0.984069079 L31.4378808,1.11202922 C30.4629582,1.9467245 29.8541017,3.18673073 29.8541017,4.57110842 C29.8541017,6.01014058 30.5225156,7.29317683 31.566036,8.12713629 C32.6420404,8.95827731 33.334094,10.2610285 33.334094,11.7252866 C33.334094,14.2387339 31.2949681,16.2762675 28.779579,16.2762675 C26.2641898,16.2762675 24.2250639,14.2387339 24.2250639,11.7252866 C24.2250639,10.2124015 24.963846,8.87192845 26.1005869,8.0444355 L25.966871,8.15532412 C27.0307836,7.32224587 27.7144377,6.0264535 27.7144377,4.57110842 C27.7144377,3.11576335 27.0307836,1.81997097 25.966871,0.986892724 C24.9060618,0.150815897 24.2250639,-1.14276641 24.2250639,-2.59528151 C24.2250639,-5.10872882 26.2641898,-7.14628044 28.779579,-7.14628044 Z" id="形状结合" fill="url(#linearGradient-1)" transform="translate(28.779579, 4.564994) rotate(-270.000000) translate(-28.779579, -4.564994) "></path>
                </g>
                <g id="编组-2备份-3" transform="translate(28.983316, 39.444571) rotate(-180.000000) translate(-28.983316, -39.444571) translate(8.751330, 34.879578)">
                    <ellipse id="椭圆形备份-23" fill="#59729E" transform="translate(11.406892, 4.614077) rotate(-360.000000) translate(-11.406892, -4.614077) " cx="11.406892" cy="4.61407726" rx="3.61682074" ry="3.61402856"></ellipse>
                    <ellipse id="椭圆形备份-24" fill="#9FB1D3" transform="translate(2.880061, 4.547151) rotate(-360.000000) translate(-2.880061, -4.547151) " cx="2.88006096" cy="4.54715081" rx="2.88006096" ry="2.87783756"></ellipse>
                    <path d="M28.779579,-7.14628044 C31.2949681,-7.14628044 33.334094,-5.10872882 33.334094,-2.59528151 C33.334094,-1.14276641 32.6530961,0.150815897 31.5927295,0.984069079 L31.4378808,1.11202922 C30.4629582,1.9467245 29.8541017,3.18673073 29.8541017,4.57110842 C29.8541017,6.01014058 30.5225156,7.29317683 31.566036,8.12713629 C32.6420404,8.95827731 33.334094,10.2610285 33.334094,11.7252866 C33.334094,14.2387339 31.2949681,16.2762675 28.779579,16.2762675 C26.2641898,16.2762675 24.2250639,14.2387339 24.2250639,11.7252866 C24.2250639,10.2124015 24.963846,8.87192845 26.1005869,8.0444355 L25.966871,8.15532412 C27.0307836,7.32224587 27.7144377,6.0264535 27.7144377,4.57110842 C27.7144377,3.11576335 27.0307836,1.81997097 25.966871,0.986892724 C24.9060618,0.150815897 24.2250639,-1.14276641 24.2250639,-2.59528151 C24.2250639,-5.10872882 26.2641898,-7.14628044 28.779579,-7.14628044 Z" id="形状结合" fill="url(#linearGradient-1)" transform="translate(28.779579, 4.564994) rotate(-270.000000) translate(-28.779579, -4.564994) "></path>
                </g>
            </g>
            <g id="Titan-Network备份-5" transform="translate(72.844466, 9.781881)" fill-rule="nonzero">
                <polygon id="路径" fill="#0E1730" points="9.6311821 6.06196789 9.6311821 21.9746336 4.34347428 21.9746336 4.34347428 6.06196789 0 6.06196789 0 1.56961669 13.9746564 1.56961669 13.9746564 6.06196789"></polygon>
                <polygon id="路径" fill="#0E1730" points="20.7461598 8.09164464 20.7461598 21.9746336 15.8631235 21.9746336 15.8631235 8.09164464"></polygon>
                <path d="M15.5393862,2.76036038 C15.5393862,2.38148739 15.6113278,2.02516636 15.755211,1.69139729 C15.8990943,1.35762823 16.0969337,1.0644527 16.3487293,0.8118707 C16.6005249,0.559288705 16.8927876,0.360831422 17.2255176,0.216498853 C17.5582475,0.0721662845 17.9134591,0 18.2911526,0 C18.668846,0 19.0240576,0.0721662845 19.3567875,0.216498853 C19.6895175,0.360831422 19.9817802,0.559288705 20.2335758,0.8118707 C20.4853714,1.0644527 20.6832109,1.35762823 20.8270941,1.69139729 C20.9709773,2.02516636 21.0429189,2.38148739 21.0429189,2.76036038 C21.0429189,3.13923337 20.9709773,3.4955544 20.8270941,3.82932347 C20.6832109,4.16309253 20.4853714,4.45626807 20.2335758,4.70885006 C19.9817802,4.96143206 19.6895175,5.15988934 19.3567875,5.30422191 C19.0240576,5.44855448 18.668846,5.52072076 18.2911526,5.52072076 C17.9134591,5.52072076 17.5582475,5.44855448 17.2255176,5.30422191 C16.8927876,5.15988934 16.6005249,4.96143206 16.3487293,4.70885006 C16.0969337,4.45626807 15.8990943,4.16309253 15.755211,3.82932347 C15.6113278,3.4955544 15.5393862,3.13923337 15.5393862,2.76036038 Z" id="路径" fill="#9FB1D3"></path>
                <polygon id="路径" fill="#0E1730" points="29.2998547 12.1780605 29.2998547 21.9746336 24.4168184 21.9746336 24.4168184 12.1780605 22.7981323 12.1780605 22.7981323 8.09164464 24.4168184 8.09164464 24.4168184 3.92404172 29.2998547 3.92404172 29.2998547 8.09164464 32.0785991 8.09164464 32.0785991 12.1780605"></polygon>
                <path d="M40.065754,7.65864694 C41.6339311,7.65864694 42.9573081,8.15721755 44.035885,9.15435878 L44.0353054,13.3824724 C43.9056416,13.1701144 43.7560052,12.9761218 43.5863962,12.8004947 C43.3076225,12.5118296 42.9748925,12.2863099 42.5882064,12.1239358 C42.2015203,11.9615616 41.7923524,11.8803746 41.3607028,11.8803746 C40.9110678,11.8803746 40.4929072,11.9615616 40.1062211,12.1239358 C39.719535,12.2863099 39.3868051,12.5118296 39.1080314,12.8004947 C38.8292577,13.0891598 38.6089365,13.4184185 38.4470679,13.7882707 C38.2851993,14.1581229 38.204265,14.5595479 38.204265,14.9925456 C38.204265,15.4435849 38.2851993,15.8630514 38.4470679,16.2509452 C38.6089365,16.638839 38.8292577,16.9771184 39.1080314,17.2657836 C39.3868051,17.5544487 39.719535,17.7799683 40.1062211,17.9423425 C40.4929072,18.1047166 40.9110678,18.1859037 41.3607028,18.1859037 C41.7923524,18.1859037 42.2015203,18.1047166 42.5882064,17.9423425 C42.9748925,17.7799683 43.3076225,17.5544487 43.5863962,17.2657836 C43.8651699,16.9771184 44.0899874,16.6433494 44.2608487,16.2644764 C44.43171,15.8856034 44.5171406,15.479668 44.5171406,15.0466703 L44.515382,15.0326469 L44.516382,8.09064694 L49.2652864,8.09164464 L49.2652864,21.9746336 L44.355272,21.9746336 L44.355272,20.4320793 C43.3121188,21.749114 41.9002648,22.4076313 40.1197102,22.4076313 C39.1125277,22.4076313 38.1862796,22.2227052 37.3409658,21.852853 C36.4956519,21.4830008 35.7582505,20.9643056 35.1287615,20.2967675 C34.4992724,19.6292294 34.0091703,18.844421 33.658455,17.9423425 C33.3077396,17.0402639 33.132382,16.0569983 33.132382,14.9925456 C33.132382,14.0002592 33.3032433,13.0575871 33.6449659,12.1645293 C33.9866885,11.2714716 34.4633016,10.4911736 35.0748053,9.82363547 C35.6863089,9.15609734 36.4147176,8.62838139 37.2600315,8.24048761 C38.1053453,7.85259383 39.0405861,7.65864694 40.065754,7.65864694 Z" id="形状结合" fill="#0E1730"></path>
                <path d="M51.1365969,8.09164464 L56.0196332,8.09164464 L56.0196332,9.85069783 C56.685093,9.03882713 57.3595455,8.4930696 58.0429908,8.21342525 C58.726436,7.9337809 59.5267863,7.79395872 60.4440418,7.79395872 C61.4152534,7.79395872 62.2470782,7.95182247 62.9395161,8.26754996 C63.631954,8.58327746 64.2209759,9.02980634 64.7065817,9.60713662 C65.1022605,10.0762175 65.3720416,10.599423 65.5159248,11.1767533 C65.659808,11.7540836 65.7317496,12.4126009 65.7317496,13.1523053 L65.7317496,21.9746336 L60.8487133,21.9746336 L60.8487133,14.9654832 C60.8487133,14.2799035 60.7992534,13.7251252 60.7003337,13.3011483 C60.601414,12.8771714 60.4260564,12.5388919 60.1742607,12.2863099 C59.9584359,12.0698111 59.715633,11.9164577 59.445852,11.8262499 C59.176071,11.736042 58.8883046,11.6909381 58.5825528,11.6909381 C57.7552243,11.6909381 57.121239,11.9390097 56.6805966,12.4351529 C56.2399543,12.9312961 56.0196332,13.6394278 56.0196332,14.5595479 L56.0196332,21.9746336 L51.1365969,21.9746336 L51.1365969,8.09164464 Z" id="路径" fill="#0E1730"></path>
                <polygon id="路径" fill="#0E1730" points="1.91544518 45.9246334 1.91544518 25.5196165 7.203153 25.5196165 16.9692256 37.9953629 16.9692256 25.5196165 22.2299553 25.5196165 22.2299553 45.9246334 16.9692256 45.9246334 7.203153 33.448887 7.203153 45.9246334"></polygon>
                <path d="M34.2213275,36.9669933 C34.0594589,36.2814136 33.726729,35.7311457 33.2231377,35.3161896 C32.7195465,34.9012334 32.1080429,34.6937554 31.3886269,34.6937554 C30.63324,34.6937554 30.0172401,34.8922126 29.5406269,35.2891272 C29.0640138,35.6860418 28.7627583,36.2453305 28.6368605,36.9669933 L34.2213275,36.9669933 Z M28.50197,39.8085408 C28.50197,41.9194046 29.4911671,42.9748365 31.4695612,42.9748365 C32.5306998,42.9748365 33.3310501,42.5418388 33.8706122,41.6758434 L38.5917799,41.6758434 C37.6385536,44.8511599 35.255488,46.4388182 31.4425831,46.4388182 C30.273532,46.4388182 29.2034007,46.2629128 28.232189,45.9111022 C27.2609774,45.5592916 26.4291526,45.058638 25.7367147,44.4091414 C25.0442767,43.7596449 24.5092111,42.9838573 24.1315177,42.0817787 C23.7538242,41.1797002 23.5649775,40.1693722 23.5649775,39.0507948 C23.5649775,37.8961342 23.7448315,36.8542335 24.1045396,35.9250926 C24.4642476,34.9959517 24.9768315,34.2066329 25.6422913,33.5571364 C26.3077511,32.9076398 27.1125978,32.4069862 28.0568314,32.0551756 C29.0010649,31.703365 30.0666999,31.5274596 31.2537364,31.5274596 C32.4227874,31.5274596 33.4749333,31.703365 34.4101742,32.0551756 C35.345415,32.4069862 36.1367727,32.9166606 36.7842471,33.5841987 C37.4317215,34.2517369 37.92632,35.068118 38.2680426,36.033342 C38.6097653,36.9985661 38.7806266,38.0855707 38.7806266,39.294356 L38.7806266,39.8085408 L28.50197,39.8085408 Z" id="形状" fill="#0E1730"></path>
                <polygon id="路径" fill="#0E1730" points="46.5266154 36.1280603 46.5266154 45.9246334 41.6435791 45.9246334 41.6435791 36.1280603 40.024893 36.1280603 40.024893 32.0416444 41.6435791 32.0416444 41.6435791 27.8740415 46.5266154 27.8740415 46.5266154 32.0416444 49.3053598 32.0416444 49.3053598 36.1280603"></polygon>
                <polygon id="路径" fill="#0E1730" points="55.3991368 32.0416444 58.7174433 39.3484807 62.1706402 32.0416444 65.2461438 32.0416444 68.6993407 39.5649796 72.1795157 32.0416444 77.6021141 32.0416444 70.371983 45.9246334 67.1076327 45.9246334 63.6544358 38.3201112 60.3631075 45.9246334 57.044801 45.9246334 49.9495604 32.0416444"></polygon>
                <path d="M82.9233476,38.915483 C82.9233476,39.3845639 83.0087783,39.8130512 83.1796396,40.2009449 C83.3505009,40.5888387 83.5753184,40.9271182 83.8540921,41.2157833 C84.1328658,41.5044485 84.4655957,41.7299681 84.8522818,41.8923422 C85.238968,42.0547164 85.6481358,42.1359035 86.0797854,42.1359035 C86.5114351,42.1359035 86.9206029,42.0547164 87.307289,41.8923422 C87.6939752,41.7299681 88.0267051,41.5044485 88.3054788,41.2157833 C88.5842525,40.9271182 88.80907,40.5888387 88.9799313,40.2009449 C89.1507926,39.8130512 89.2362233,39.3935846 89.2362233,38.9425454 C89.2362233,38.5095477 89.1507926,38.0991019 88.9799313,37.7112081 C88.80907,37.3233144 88.5842525,36.9850349 88.3054788,36.6963698 C88.0267051,36.4077046 87.6939752,36.182185 87.307289,36.0198108 C86.9206029,35.8574367 86.5114351,35.7762496 86.0797854,35.7762496 C85.6481358,35.7762496 85.238968,35.8574367 84.8522818,36.0198108 C84.4655957,36.182185 84.1328658,36.4077046 83.8540921,36.6963698 C83.5753184,36.9850349 83.3505009,37.318804 83.1796396,37.697677 C83.0087783,38.07655 82.9233476,38.4824853 82.9233476,38.915483 Z M77.7705303,38.8613583 C77.7705303,37.8329887 77.9773624,36.8722751 78.3910266,35.9792173 C78.8046908,35.0861595 79.3802237,34.310372 80.1176251,33.6518546 C80.8550265,32.9933373 81.7318148,32.4746421 82.74799,32.0957691 C83.7641651,31.7168961 84.8747636,31.5274596 86.0797854,31.5274596 C87.2668219,31.5274596 88.3684277,31.7123857 89.3846028,32.0822379 C90.400778,32.4520902 91.2820626,32.9662749 92.0284567,33.6247923 C92.7748509,34.2833096 93.35488,35.068118 93.7685443,35.9792173 C94.1822085,36.8903167 94.3890406,37.8961342 94.3890406,38.9966701 C94.3890406,40.0972059 94.1777121,41.1030235 93.7550552,42.0141228 C93.3323983,42.9252222 92.7523691,43.7100305 92.0149677,44.3685479 C91.2775663,45.0270652 90.3917853,45.5367396 89.3576247,45.897571 C88.3234642,46.2584025 87.203873,46.4388182 85.9988511,46.4388182 C84.8118147,46.4388182 83.7147052,46.2584025 82.7075228,45.897571 C81.7003404,45.5367396 80.8325448,45.0225548 80.104136,44.3550167 C79.3757273,43.6874786 78.8046908,42.889139 78.3910266,41.9599981 C77.9773624,41.0308572 77.7705303,39.9979773 77.7705303,38.8613583 Z" id="形状" fill="#0E1730"></path>
                <path d="M95.9889331,32.0416444 L100.871969,32.0416444 L100.871969,34.3148824 C101.393546,33.4849701 102.032028,32.8490047 102.787415,32.4069862 C103.542801,31.9649677 104.424086,31.7439585 105.431268,31.7439585 C105.557166,31.7439585 105.696553,31.7439585 105.849429,31.7439585 C106.002305,31.7439585 106.177663,31.7620001 106.375502,31.7980832 L106.375502,36.4798709 C105.728028,36.1551226 105.026597,35.9927485 104.27121,35.9927485 C103.13813,35.9927485 102.28832,36.3310279 101.72178,37.0075869 C101.155239,37.6841458 100.871969,38.6719218 100.871969,39.9709149 L100.871969,45.9246334 L95.9889331,45.9246334 L95.9889331,32.0416444 Z" id="路径" fill="#0E1730"></path>
                <polygon id="路径" fill="#0E1730" points="112.934454 23.4628773 112.934454 37.0481804 118.060294 32.0416444 124.750863 32.0416444 117.817491 38.4554229 125.155534 45.9246334 118.303097 45.9246334 112.934454 40.2686008 112.934454 45.9246334 108.051418 45.9246334 108.051418 23.4628773"></polygon>
            </g>
        </g>
    </g>
</svg>